<svg width="273" height="143" viewBox="0 0 273 143" fill="none" xmlns="http://www.w3.org/2000/svg">
<path d="M6.282 12.216C5.538 12.216 4.836 12.09 4.176 11.838C3.516 11.574 2.934 11.19 2.43 10.686C1.938 10.182 1.548 9.558 1.26 8.814C0.972 8.058 0.828 7.188 0.828 6.204C0.828 5.232 0.978 4.368 1.278 3.612C1.578 2.844 1.98 2.196 2.484 1.668C2.988 1.14 3.576 0.737999 4.248 0.461999C4.92 0.185999 5.628 0.0479994 6.372 0.0479994C7.128 0.0479994 7.806 0.204 8.406 0.516C9.006 0.816 9.504 1.17 9.9 1.578L8.496 3.27C8.196 2.994 7.878 2.772 7.542 2.604C7.218 2.424 6.846 2.334 6.426 2.334C6.03 2.334 5.652 2.424 5.292 2.604C4.944 2.772 4.638 3.018 4.374 3.342C4.122 3.666 3.918 4.062 3.762 4.53C3.618 4.998 3.546 5.526 3.546 6.114C3.546 7.326 3.804 8.268 4.32 8.94C4.836 9.6 5.526 9.93 6.39 9.93C6.87 9.93 7.296 9.828 7.668 9.624C8.052 9.408 8.388 9.144 8.676 8.832L10.08 10.488C9.096 11.64 7.83 12.216 6.282 12.216ZM14.6166 6.06L14.3286 7.14H16.8306L16.5606 6.06C16.3926 5.472 16.2306 4.848 16.0746 4.188C15.9186 3.528 15.7626 2.892 15.6066 2.28H15.5346C15.3906 2.904 15.2406 3.546 15.0846 4.206C14.9406 4.854 14.7846 5.472 14.6166 6.06ZM10.3686 12L14.0406 0.264H17.2266L20.8986 12H18.0906L17.3706 9.21H13.7886L13.0686 12H10.3686ZM22.1809 12V0.264H24.8269V9.768H29.4709V12H22.1809ZM31.4973 12V0.264H34.1433V9.768H38.7873V12H31.4973ZM49.0433 12.216C47.5193 12.216 46.3553 11.766 45.5513 10.866C44.7473 9.966 44.3453 8.532 44.3453 6.564V0.264H47.0093V6.834C47.0093 7.986 47.1833 8.79 47.5312 9.246C47.8793 9.702 48.3833 9.93 49.0433 9.93C49.7033 9.93 50.2133 9.702 50.5733 9.246C50.9333 8.79 51.1133 7.986 51.1133 6.834V0.264H53.6693V6.564C53.6693 8.532 53.2733 9.966 52.4813 10.866C51.7013 11.766 50.5553 12.216 49.0433 12.216ZM59.7942 12.216C59.0262 12.216 58.2582 12.078 57.4902 11.802C56.7342 11.514 56.0562 11.088 55.4562 10.524L56.9682 8.706C57.3882 9.066 57.8502 9.36 58.3542 9.588C58.8702 9.816 59.3742 9.93 59.8662 9.93C60.4182 9.93 60.8262 9.828 61.0902 9.624C61.3662 9.42 61.5042 9.144 61.5042 8.796C61.5042 8.616 61.4622 8.46 61.3782 8.328C61.3062 8.196 61.1922 8.082 61.0362 7.986C60.8922 7.878 60.7122 7.782 60.4962 7.698C60.2922 7.602 60.0642 7.5 59.8122 7.392L58.2822 6.744C57.9822 6.624 57.6882 6.468 57.4002 6.276C57.1242 6.084 56.8722 5.862 56.6442 5.61C56.4282 5.346 56.2542 5.046 56.1222 4.71C55.9902 4.362 55.9242 3.972 55.9242 3.54C55.9242 3.06 56.0262 2.61 56.2302 2.19C56.4342 1.758 56.7222 1.386 57.0942 1.074C57.4662 0.75 57.9042 0.498 58.4082 0.317999C58.9242 0.137999 59.4882 0.0479994 60.1002 0.0479994C60.7842 0.0479994 61.4562 0.179999 62.1162 0.444C62.7882 0.708 63.3762 1.092 63.8802 1.596L62.5302 3.27C62.1462 2.97 61.7622 2.742 61.3782 2.586C60.9942 2.418 60.5682 2.334 60.1002 2.334C59.6442 2.334 59.2782 2.43 59.0022 2.622C58.7382 2.802 58.6062 3.06 58.6062 3.396C58.6062 3.576 58.6482 3.732 58.7322 3.864C58.8282 3.984 58.9542 4.098 59.1102 4.206C59.2782 4.302 59.4702 4.398 59.6862 4.494C59.9022 4.578 60.1362 4.674 60.3882 4.782L61.9002 5.394C62.6202 5.682 63.1842 6.078 63.5922 6.582C64.0122 7.086 64.2222 7.752 64.2222 8.58C64.2222 9.072 64.1202 9.54 63.9162 9.984C63.7242 10.416 63.4362 10.8 63.0522 11.136C62.6802 11.46 62.2182 11.724 61.6662 11.928C61.1142 12.12 60.4902 12.216 59.7942 12.216ZM67.5281 6.384C67.0721 6.384 66.6881 6.228 66.3761 5.916C66.0761 5.592 65.9261 5.196 65.9261 4.728C65.9261 4.248 66.0761 3.852 66.3761 3.54C66.6881 3.216 67.0721 3.054 67.5281 3.054C67.9841 3.054 68.3621 3.216 68.6621 3.54C68.9741 3.852 69.1301 4.248 69.1301 4.728C69.1301 5.196 68.9741 5.592 68.6621 5.916C68.3621 6.228 67.9841 6.384 67.5281 6.384ZM67.5281 12.216C67.0721 12.216 66.6881 12.06 66.3761 11.748C66.0761 11.424 65.9261 11.028 65.9261 10.56C65.9261 10.08 66.0761 9.684 66.3761 9.372C66.6881 9.048 67.0721 8.886 67.5281 8.886C67.9841 8.886 68.3621 9.048 68.6621 9.372C68.9741 9.684 69.1301 10.08 69.1301 10.56C69.1301 11.028 68.9741 11.424 68.6621 11.748C68.3621 12.06 67.9841 12.216 67.5281 12.216ZM77.7161 10.128V6.618H74.4401V5.502H77.7161V1.992H78.8861V5.502H82.1621V6.618H78.8861V10.128H77.7161ZM87.0234 12.216C86.5674 12.216 86.1474 12.168 85.7634 12.072C85.3914 11.988 85.0494 11.874 84.7374 11.73C84.4254 11.574 84.1434 11.4 83.8914 11.208C83.6514 11.016 83.4354 10.812 83.2434 10.596L83.9994 9.624C84.3474 9.984 84.7494 10.302 85.2054 10.578C85.6734 10.854 86.2494 10.992 86.9334 10.992C87.6294 10.992 88.1994 10.806 88.6434 10.434C89.0874 10.05 89.3094 9.534 89.3094 8.886C89.3094 8.55 89.2434 8.244 89.1114 7.968C88.9914 7.68 88.7874 7.434 88.4994 7.23C88.2114 7.026 87.8334 6.87 87.3654 6.762C86.8974 6.654 86.3214 6.6 85.6374 6.6V5.466C86.2494 5.466 86.7594 5.412 87.1674 5.304C87.5874 5.196 87.9234 5.046 88.1754 4.854C88.4394 4.662 88.6254 4.434 88.7334 4.17C88.8414 3.906 88.8954 3.624 88.8954 3.324C88.8954 2.76 88.7154 2.316 88.3554 1.992C88.0074 1.668 87.5274 1.506 86.9154 1.506C86.4354 1.506 85.9914 1.614 85.5834 1.83C85.1874 2.046 84.8154 2.328 84.4674 2.676L83.6754 1.74C84.1194 1.32 84.6054 0.978 85.1334 0.713999C85.6734 0.437999 86.2854 0.299999 86.9694 0.299999C87.4734 0.299999 87.9354 0.365999 88.3554 0.497999C88.7754 0.629999 89.1354 0.821999 89.4354 1.074C89.7474 1.314 89.9874 1.614 90.1554 1.974C90.3234 2.334 90.4074 2.748 90.4074 3.216C90.4074 3.912 90.2154 4.482 89.8314 4.926C89.4474 5.37 88.9434 5.712 88.3194 5.952V6.024C88.6674 6.108 88.9914 6.234 89.2914 6.402C89.5914 6.558 89.8554 6.762 90.0834 7.014C90.3114 7.254 90.4854 7.536 90.6054 7.86C90.7374 8.184 90.8034 8.544 90.8034 8.94C90.8034 9.444 90.7014 9.9 90.4974 10.308C90.3054 10.716 90.0354 11.064 89.6874 11.352C89.3514 11.628 88.9554 11.844 88.4994 12C88.0434 12.144 87.5514 12.216 87.0234 12.216ZM93.1447 12V10.776H95.7727V2.316H93.6847V1.362C94.2127 1.266 94.6687 1.152 95.0527 1.02C95.4487 0.875999 95.8027 0.707999 96.1147 0.516H97.2487V10.776H99.6247V12H93.1447ZM105.494 12.216C104.93 12.216 104.408 12.102 103.928 11.874C103.448 11.646 103.028 11.304 102.668 10.848C102.32 10.38 102.044 9.804 101.84 9.12C101.636 8.424 101.534 7.614 101.534 6.69C101.534 5.538 101.654 4.56 101.894 3.756C102.134 2.94 102.458 2.28 102.866 1.776C103.274 1.26 103.736 0.888 104.252 0.659999C104.78 0.419999 105.332 0.299999 105.908 0.299999C106.532 0.299999 107.066 0.419999 107.51 0.659999C107.966 0.888 108.356 1.176 108.68 1.524L107.852 2.442C107.612 2.166 107.324 1.95 106.988 1.794C106.664 1.626 106.322 1.542 105.962 1.542C105.566 1.542 105.188 1.626 104.828 1.794C104.468 1.962 104.15 2.238 103.874 2.622C103.598 3.006 103.376 3.51 103.208 4.134C103.04 4.746 102.95 5.508 102.938 6.42C103.298 5.976 103.718 5.628 104.198 5.376C104.678 5.112 105.152 4.98 105.62 4.98C106.616 4.98 107.408 5.274 107.996 5.862C108.596 6.45 108.896 7.338 108.896 8.526C108.896 9.078 108.806 9.582 108.626 10.038C108.446 10.482 108.2 10.866 107.888 11.19C107.576 11.514 107.216 11.766 106.808 11.946C106.4 12.126 105.962 12.216 105.494 12.216ZM105.494 11.046C105.782 11.046 106.046 10.986 106.286 10.866C106.526 10.746 106.736 10.578 106.916 10.362C107.096 10.134 107.234 9.87 107.33 9.57C107.438 9.258 107.492 8.91 107.492 8.526C107.492 7.77 107.318 7.176 106.97 6.744C106.622 6.312 106.088 6.096 105.368 6.096C104.996 6.096 104.594 6.216 104.162 6.456C103.73 6.684 103.334 7.068 102.974 7.608C103.07 8.736 103.328 9.594 103.748 10.182C104.18 10.758 104.762 11.046 105.494 11.046ZM111.039 12V10.776H113.667V2.316H111.579V1.362C112.107 1.266 112.563 1.152 112.947 1.02C113.343 0.875999 113.697 0.707999 114.009 0.516H115.143V10.776H117.519V12H111.039ZM119.284 12V11.118C120.148 10.254 120.916 9.474 121.588 8.778C122.26 8.082 122.824 7.44 123.28 6.852C123.736 6.252 124.084 5.706 124.324 5.214C124.564 4.71 124.684 4.224 124.684 3.756C124.684 3.096 124.504 2.556 124.144 2.136C123.784 1.716 123.238 1.506 122.506 1.506C122.026 1.506 121.582 1.644 121.174 1.92C120.766 2.184 120.394 2.508 120.058 2.892L119.212 2.046C119.692 1.518 120.202 1.098 120.742 0.786C121.282 0.461999 121.93 0.299999 122.686 0.299999C123.754 0.299999 124.594 0.611999 125.206 1.236C125.818 1.848 126.124 2.664 126.124 3.684C126.124 4.224 126.004 4.77 125.764 5.322C125.536 5.862 125.212 6.426 124.792 7.014C124.384 7.59 123.892 8.196 123.316 8.832C122.752 9.456 122.128 10.122 121.444 10.83C121.756 10.806 122.08 10.782 122.416 10.758C122.752 10.734 123.07 10.722 123.37 10.722H126.7V12H119.284ZM131.76 12.216C131.304 12.216 130.884 12.168 130.5 12.072C130.128 11.988 129.786 11.874 129.474 11.73C129.162 11.574 128.88 11.4 128.628 11.208C128.388 11.016 128.172 10.812 127.98 10.596L128.736 9.624C129.084 9.984 129.486 10.302 129.942 10.578C130.41 10.854 130.986 10.992 131.67 10.992C132.366 10.992 132.936 10.806 133.38 10.434C133.824 10.05 134.046 9.534 134.046 8.886C134.046 8.55 133.98 8.244 133.848 7.968C133.728 7.68 133.524 7.434 133.236 7.23C132.948 7.026 132.57 6.87 132.102 6.762C131.634 6.654 131.058 6.6 130.374 6.6V5.466C130.986 5.466 131.496 5.412 131.904 5.304C132.324 5.196 132.66 5.046 132.912 4.854C133.176 4.662 133.362 4.434 133.47 4.17C133.578 3.906 133.632 3.624 133.632 3.324C133.632 2.76 133.452 2.316 133.092 1.992C132.744 1.668 132.264 1.506 131.652 1.506C131.172 1.506 130.728 1.614 130.32 1.83C129.924 2.046 129.552 2.328 129.204 2.676L128.412 1.74C128.856 1.32 129.342 0.978 129.87 0.713999C130.41 0.437999 131.022 0.299999 131.706 0.299999C132.21 0.299999 132.672 0.365999 133.092 0.497999C133.512 0.629999 133.872 0.821999 134.172 1.074C134.484 1.314 134.724 1.614 134.892 1.974C135.06 2.334 135.144 2.748 135.144 3.216C135.144 3.912 134.952 4.482 134.568 4.926C134.184 5.37 133.68 5.712 133.056 5.952V6.024C133.404 6.108 133.728 6.234 134.028 6.402C134.328 6.558 134.592 6.762 134.82 7.014C135.048 7.254 135.222 7.536 135.342 7.86C135.474 8.184 135.54 8.544 135.54 8.94C135.54 9.444 135.438 9.9 135.234 10.308C135.042 10.716 134.772 11.064 134.424 11.352C134.088 11.628 133.692 11.844 133.236 12C132.78 12.144 132.288 12.216 131.76 12.216ZM141.931 12V8.832H136.765V7.86L141.679 0.516H143.335V7.644H144.901V8.832H143.335V12H141.931ZM138.331 7.644H141.931V4.314C141.931 4.002 141.937 3.636 141.949 3.216C141.973 2.784 141.997 2.412 142.021 2.1H141.949C141.805 2.376 141.655 2.646 141.499 2.91C141.343 3.174 141.181 3.444 141.013 3.72L138.331 7.644ZM149.618 12.216C149.162 12.216 148.742 12.168 148.358 12.072C147.986 11.988 147.644 11.874 147.332 11.73C147.032 11.586 146.756 11.424 146.504 11.244C146.264 11.052 146.048 10.854 145.856 10.65L146.576 9.678C146.912 10.026 147.308 10.332 147.764 10.596C148.232 10.86 148.802 10.992 149.474 10.992C149.822 10.992 150.146 10.932 150.446 10.812C150.758 10.68 151.028 10.5 151.256 10.272C151.484 10.044 151.664 9.768 151.796 9.444C151.928 9.12 151.994 8.76 151.994 8.364C151.994 7.572 151.772 6.954 151.328 6.51C150.884 6.066 150.29 5.844 149.546 5.844C149.15 5.844 148.808 5.904 148.52 6.024C148.244 6.144 147.932 6.318 147.584 6.546L146.792 6.042L147.17 0.516H152.912V1.794H148.466L148.16 5.196C148.436 5.052 148.712 4.938 148.988 4.854C149.264 4.77 149.576 4.728 149.924 4.728C150.416 4.728 150.878 4.8 151.31 4.944C151.742 5.088 152.12 5.31 152.444 5.61C152.768 5.898 153.02 6.27 153.2 6.726C153.392 7.17 153.488 7.704 153.488 8.328C153.488 8.952 153.38 9.504 153.164 9.984C152.948 10.464 152.66 10.872 152.3 11.208C151.94 11.532 151.526 11.784 151.058 11.964C150.602 12.132 150.122 12.216 149.618 12.216ZM159.178 12.216C158.614 12.216 158.092 12.102 157.612 11.874C157.132 11.646 156.712 11.304 156.352 10.848C156.004 10.38 155.728 9.804 155.524 9.12C155.32 8.424 155.218 7.614 155.218 6.69C155.218 5.538 155.338 4.56 155.578 3.756C155.818 2.94 156.142 2.28 156.55 1.776C156.958 1.26 157.42 0.888 157.936 0.659999C158.464 0.419999 159.016 0.299999 159.592 0.299999C160.216 0.299999 160.75 0.419999 161.194 0.659999C161.65 0.888 162.04 1.176 162.364 1.524L161.536 2.442C161.296 2.166 161.008 1.95 160.672 1.794C160.348 1.626 160.006 1.542 159.646 1.542C159.25 1.542 158.872 1.626 158.512 1.794C158.152 1.962 157.834 2.238 157.558 2.622C157.282 3.006 157.06 3.51 156.892 4.134C156.724 4.746 156.634 5.508 156.622 6.42C156.982 5.976 157.402 5.628 157.882 5.376C158.362 5.112 158.836 4.98 159.304 4.98C160.3 4.98 161.092 5.274 161.68 5.862C162.28 6.45 162.58 7.338 162.58 8.526C162.58 9.078 162.49 9.582 162.31 10.038C162.13 10.482 161.884 10.866 161.572 11.19C161.26 11.514 160.9 11.766 160.492 11.946C160.084 12.126 159.646 12.216 159.178 12.216ZM159.178 11.046C159.466 11.046 159.73 10.986 159.97 10.866C160.21 10.746 160.42 10.578 160.6 10.362C160.78 10.134 160.918 9.87 161.014 9.57C161.122 9.258 161.176 8.91 161.176 8.526C161.176 7.77 161.002 7.176 160.654 6.744C160.306 6.312 159.772 6.096 159.052 6.096C158.68 6.096 158.278 6.216 157.846 6.456C157.414 6.684 157.018 7.068 156.658 7.608C156.754 8.736 157.012 9.594 157.432 10.182C157.864 10.758 158.446 11.046 159.178 11.046ZM166.487 12C166.535 10.92 166.631 9.93 166.775 9.03C166.919 8.13 167.117 7.278 167.369 6.474C167.633 5.658 167.963 4.872 168.359 4.116C168.767 3.36 169.253 2.586 169.817 1.794H164.093V0.516H171.491V1.434C170.807 2.298 170.249 3.126 169.817 3.918C169.397 4.71 169.061 5.52 168.809 6.348C168.557 7.164 168.371 8.034 168.251 8.958C168.143 9.87 168.065 10.884 168.017 12H166.487ZM176.748 12.216C176.208 12.216 175.704 12.138 175.236 11.982C174.78 11.826 174.384 11.61 174.048 11.334C173.724 11.046 173.466 10.71 173.274 10.326C173.082 9.942 172.986 9.522 172.986 9.066C172.986 8.694 173.046 8.352 173.166 8.04C173.298 7.716 173.46 7.428 173.652 7.176C173.856 6.912 174.084 6.684 174.336 6.492C174.6 6.288 174.87 6.114 175.146 5.97V5.898C174.726 5.598 174.354 5.238 174.03 4.818C173.706 4.386 173.544 3.864 173.544 3.252C173.544 2.808 173.628 2.406 173.796 2.046C173.964 1.686 174.192 1.38 174.48 1.128C174.768 0.863999 175.11 0.659999 175.506 0.516C175.902 0.372 176.334 0.299999 176.802 0.299999C177.306 0.299999 177.756 0.377999 178.152 0.534C178.548 0.678 178.884 0.888 179.16 1.164C179.448 1.428 179.664 1.752 179.808 2.136C179.964 2.508 180.042 2.916 180.042 3.36C180.042 3.66 179.988 3.948 179.88 4.224C179.784 4.5 179.658 4.758 179.502 4.998C179.358 5.238 179.19 5.454 178.998 5.646C178.818 5.838 178.638 6 178.458 6.132V6.204C178.71 6.348 178.956 6.516 179.196 6.708C179.436 6.888 179.646 7.098 179.826 7.338C180.018 7.566 180.168 7.83 180.276 8.13C180.396 8.43 180.456 8.772 180.456 9.156C180.456 9.588 180.366 9.99 180.186 10.362C180.006 10.734 179.754 11.058 179.43 11.334C179.106 11.61 178.716 11.826 178.26 11.982C177.804 12.138 177.3 12.216 176.748 12.216ZM177.558 5.736C177.942 5.388 178.236 5.022 178.44 4.638C178.656 4.254 178.764 3.852 178.764 3.432C178.764 2.856 178.59 2.376 178.242 1.992C177.894 1.596 177.402 1.398 176.766 1.398C176.226 1.398 175.782 1.566 175.434 1.902C175.086 2.238 174.912 2.688 174.912 3.252C174.912 3.6 174.984 3.9 175.128 4.152C175.272 4.392 175.464 4.608 175.704 4.8C175.956 4.992 176.238 5.166 176.55 5.322C176.874 5.466 177.21 5.604 177.558 5.736ZM176.784 11.118C177.456 11.118 177.996 10.932 178.404 10.56C178.824 10.188 179.034 9.702 179.034 9.102C179.034 8.73 178.95 8.412 178.782 8.148C178.614 7.884 178.386 7.656 178.098 7.464C177.81 7.26 177.474 7.08 177.09 6.924C176.718 6.756 176.328 6.588 175.92 6.42C175.464 6.732 175.08 7.098 174.768 7.518C174.468 7.926 174.318 8.394 174.318 8.922C174.318 9.246 174.378 9.54 174.498 9.804C174.63 10.068 174.804 10.302 175.02 10.506C175.248 10.698 175.512 10.848 175.812 10.956C176.112 11.064 176.436 11.118 176.784 11.118ZM1.386 38V26.264H8.73V28.496H4.032V30.854H8.028V33.068H4.032V35.768H8.91V38H1.386ZM11.2473 38V26.264H14.1453L16.0353 31.484C16.1553 31.832 16.2693 32.192 16.3773 32.564C16.4853 32.924 16.5993 33.284 16.7193 33.644H16.7913C16.9113 33.284 17.0193 32.924 17.1153 32.564C17.2233 32.192 17.3373 31.832 17.4573 31.484L19.3113 26.264H22.1913V38H19.7793V33.698C19.7793 33.41 19.7913 33.092 19.8153 32.744C19.8393 32.396 19.8693 32.048 19.9053 31.7C19.9413 31.34 19.9773 30.992 20.0133 30.656C20.0493 30.308 20.0853 29.99 20.1213 29.702H20.0493L19.0953 32.492L17.4213 36.974H15.9633L14.2893 32.492L13.3533 29.702H13.2813C13.3173 29.99 13.3533 30.308 13.3893 30.656C13.4253 30.992 13.4613 31.34 13.4973 31.7C13.5333 32.048 13.5633 32.396 13.5873 32.744C13.6113 33.092 13.6233 33.41 13.6233 33.698V38H11.2473ZM27.7123 32.06L27.4243 33.14H29.9263L29.6563 32.06C29.4883 31.472 29.3263 30.848 29.1703 30.188C29.0143 29.528 28.8583 28.892 28.7023 28.28H28.6303C28.4863 28.904 28.3363 29.546 28.1803 30.206C28.0363 30.854 27.8803 31.472 27.7123 32.06ZM23.4643 38L27.1363 26.264H30.3223L33.9943 38H31.1863L30.4663 35.21H26.8843L26.1643 38H23.4643ZM35.2766 38V26.264H37.9226V38H35.2766ZM40.6907 38V26.264H43.3367V35.768H47.9807V38H40.6907ZM58.2366 38.216C56.7126 38.216 55.5486 37.766 54.7446 36.866C53.9406 35.966 53.5386 34.532 53.5386 32.564V26.264H56.2026V32.834C56.2026 33.986 56.3766 34.79 56.7246 35.246C57.0726 35.702 57.5766 35.93 58.2366 35.93C58.8966 35.93 59.4066 35.702 59.7666 35.246C60.1266 34.79 60.3066 33.986 60.3066 32.834V26.264H62.8626V32.564C62.8626 34.532 62.4666 35.966 61.6746 36.866C60.8946 37.766 59.7486 38.216 58.2366 38.216ZM68.9875 38.216C68.2195 38.216 67.4515 38.078 66.6835 37.802C65.9275 37.514 65.2495 37.088 64.6495 36.524L66.1615 34.706C66.5815 35.066 67.0435 35.36 67.5475 35.588C68.0635 35.816 68.5675 35.93 69.0595 35.93C69.6115 35.93 70.0195 35.828 70.2835 35.624C70.5595 35.42 70.6975 35.144 70.6975 34.796C70.6975 34.616 70.6555 34.46 70.5715 34.328C70.4995 34.196 70.3855 34.082 70.2295 33.986C70.0855 33.878 69.9055 33.782 69.6895 33.698C69.4855 33.602 69.2575 33.5 69.0055 33.392L67.4755 32.744C67.1755 32.624 66.8815 32.468 66.5935 32.276C66.3175 32.084 66.0655 31.862 65.8375 31.61C65.6215 31.346 65.4475 31.046 65.3155 30.71C65.1835 30.362 65.1175 29.972 65.1175 29.54C65.1175 29.06 65.2195 28.61 65.4235 28.19C65.6275 27.758 65.9155 27.386 66.2875 27.074C66.6595 26.75 67.0975 26.498 67.6015 26.318C68.1175 26.138 68.6815 26.048 69.2935 26.048C69.9775 26.048 70.6495 26.18 71.3095 26.444C71.9815 26.708 72.5695 27.092 73.0735 27.596L71.7235 29.27C71.3395 28.97 70.9555 28.742 70.5715 28.586C70.1875 28.418 69.7615 28.334 69.2935 28.334C68.8375 28.334 68.4715 28.43 68.1955 28.622C67.9315 28.802 67.7995 29.06 67.7995 29.396C67.7995 29.576 67.8415 29.732 67.9255 29.864C68.0215 29.984 68.1475 30.098 68.3035 30.206C68.4715 30.302 68.6635 30.398 68.8795 30.494C69.0955 30.578 69.3295 30.674 69.5815 30.782L71.0935 31.394C71.8135 31.682 72.3775 32.078 72.7855 32.582C73.2055 33.086 73.4155 33.752 73.4155 34.58C73.4155 35.072 73.3135 35.54 73.1095 35.984C72.9175 36.416 72.6295 36.8 72.2455 37.136C71.8735 37.46 71.4115 37.724 70.8595 37.928C70.3075 38.12 69.6835 38.216 68.9875 38.216ZM76.7215 32.384C76.2655 32.384 75.8815 32.228 75.5695 31.916C75.2695 31.592 75.1195 31.196 75.1195 30.728C75.1195 30.248 75.2695 29.852 75.5695 29.54C75.8815 29.216 76.2655 29.054 76.7215 29.054C77.1775 29.054 77.5555 29.216 77.8555 29.54C78.1675 29.852 78.3235 30.248 78.3235 30.728C78.3235 31.196 78.1675 31.592 77.8555 31.916C77.5555 32.228 77.1775 32.384 76.7215 32.384ZM76.7215 38.216C76.2655 38.216 75.8815 38.06 75.5695 37.748C75.2695 37.424 75.1195 37.028 75.1195 36.56C75.1195 36.08 75.2695 35.684 75.5695 35.372C75.8815 35.048 76.2655 34.886 76.7215 34.886C77.1775 34.886 77.5555 35.048 77.8555 35.372C78.1675 35.684 78.3235 36.08 78.3235 36.56C78.3235 37.028 78.1675 37.424 77.8555 37.748C77.5555 38.06 77.1775 38.216 76.7215 38.216ZM86.7835 38.216C86.1595 38.216 85.5655 38.102 85.0015 37.874C84.4375 37.646 83.9455 37.358 83.5255 37.01L84.2635 36.02C84.6475 36.332 85.0375 36.584 85.4335 36.776C85.8415 36.968 86.3095 37.064 86.8375 37.064C87.4135 37.064 87.8455 36.932 88.1335 36.668C88.4215 36.404 88.5655 36.08 88.5655 35.696C88.5655 35.468 88.5055 35.27 88.3855 35.102C88.2655 34.934 88.1095 34.79 87.9175 34.67C87.7375 34.538 87.5275 34.424 87.2875 34.328C87.0475 34.232 86.8075 34.136 86.5675 34.04C86.2555 33.932 85.9435 33.812 85.6315 33.68C85.3195 33.536 85.0375 33.368 84.7855 33.176C84.5455 32.972 84.3475 32.738 84.1915 32.474C84.0355 32.21 83.9575 31.892 83.9575 31.52C83.9575 31.172 84.0235 30.848 84.1555 30.548C84.2995 30.236 84.4975 29.972 84.7495 29.756C85.0135 29.528 85.3315 29.354 85.7035 29.234C86.0755 29.102 86.4955 29.036 86.9635 29.036C87.5155 29.036 88.0195 29.132 88.4755 29.324C88.9435 29.516 89.3455 29.75 89.6815 30.026L88.9795 30.962C88.6795 30.734 88.3675 30.548 88.0435 30.404C87.7195 30.26 87.3655 30.188 86.9815 30.188C86.4295 30.188 86.0215 30.314 85.7575 30.566C85.5055 30.818 85.3795 31.112 85.3795 31.448C85.3795 31.652 85.4335 31.832 85.5415 31.988C85.6495 32.132 85.7935 32.264 85.9735 32.384C86.1535 32.492 86.3575 32.594 86.5855 32.69C86.8255 32.774 87.0715 32.864 87.3235 32.96C87.6355 33.08 87.9475 33.206 88.2595 33.338C88.5835 33.47 88.8715 33.638 89.1235 33.842C89.3755 34.034 89.5795 34.274 89.7355 34.562C89.9035 34.85 89.9875 35.198 89.9875 35.606C89.9875 35.966 89.9155 36.302 89.7715 36.614C89.6395 36.926 89.4355 37.202 89.1595 37.442C88.8955 37.682 88.5595 37.868 88.1515 38C87.7555 38.144 87.2995 38.216 86.7835 38.216ZM94.0545 38.216C93.3225 38.216 92.7105 38 92.2185 37.568C91.7385 37.136 91.4985 36.524 91.4985 35.732C91.4985 34.772 91.9245 34.04 92.7765 33.536C93.6285 33.02 94.9905 32.66 96.8625 32.456C96.8625 32.18 96.8325 31.91 96.7725 31.646C96.7245 31.382 96.6345 31.148 96.5025 30.944C96.3705 30.74 96.1845 30.578 95.9445 30.458C95.7165 30.326 95.4225 30.26 95.0625 30.26C94.5585 30.26 94.0845 30.356 93.6405 30.548C93.1965 30.74 92.8005 30.956 92.4525 31.196L91.8765 30.17C92.2845 29.906 92.7825 29.654 93.3705 29.414C93.9585 29.162 94.6065 29.036 95.3145 29.036C96.3825 29.036 97.1565 29.366 97.6365 30.026C98.1165 30.674 98.3565 31.544 98.3565 32.636V38H97.1325L97.0065 36.956H96.9525C96.5325 37.304 96.0825 37.604 95.6025 37.856C95.1225 38.096 94.6065 38.216 94.0545 38.216ZM94.4865 37.028C94.9065 37.028 95.3025 36.932 95.6745 36.74C96.0465 36.536 96.4425 36.242 96.8625 35.858V33.428C96.1305 33.524 95.5125 33.638 95.0085 33.77C94.5165 33.902 94.1145 34.058 93.8025 34.238C93.5025 34.418 93.2805 34.628 93.1365 34.868C93.0045 35.096 92.9385 35.348 92.9385 35.624C92.9385 36.128 93.0885 36.488 93.3885 36.704C93.6885 36.92 94.0545 37.028 94.4865 37.028ZM102.675 38.216C102.111 38.216 101.709 38.048 101.469 37.712C101.229 37.376 101.109 36.884 101.109 36.236V25.184H102.585V36.344C102.585 36.584 102.627 36.752 102.711 36.848C102.795 36.944 102.891 36.992 102.999 36.992C103.047 36.992 103.089 36.992 103.125 36.992C103.173 36.992 103.239 36.98 103.323 36.956L103.521 38.072C103.425 38.12 103.311 38.156 103.179 38.18C103.047 38.204 102.879 38.216 102.675 38.216ZM109.243 38.216C108.655 38.216 108.103 38.114 107.587 37.91C107.083 37.694 106.639 37.394 106.255 37.01C105.883 36.614 105.589 36.134 105.373 35.57C105.157 35.006 105.049 34.364 105.049 33.644C105.049 32.924 105.157 32.282 105.373 31.718C105.601 31.142 105.895 30.656 106.255 30.26C106.627 29.864 107.047 29.564 107.515 29.36C107.983 29.144 108.469 29.036 108.973 29.036C109.525 29.036 110.017 29.132 110.449 29.324C110.893 29.516 111.259 29.792 111.547 30.152C111.847 30.512 112.075 30.944 112.231 31.448C112.387 31.952 112.465 32.516 112.465 33.14C112.465 33.296 112.459 33.452 112.447 33.608C112.447 33.752 112.435 33.878 112.411 33.986H106.507C106.567 34.922 106.855 35.666 107.371 36.218C107.899 36.758 108.583 37.028 109.423 37.028C109.843 37.028 110.227 36.968 110.575 36.848C110.935 36.716 111.277 36.548 111.601 36.344L112.123 37.316C111.739 37.556 111.313 37.766 110.845 37.946C110.377 38.126 109.843 38.216 109.243 38.216ZM106.489 32.924H111.169C111.169 32.036 110.977 31.364 110.593 30.908C110.221 30.44 109.693 30.206 109.009 30.206C108.697 30.206 108.397 30.266 108.109 30.386C107.833 30.506 107.581 30.686 107.353 30.926C107.125 31.154 106.933 31.436 106.777 31.772C106.633 32.108 106.537 32.492 106.489 32.924ZM116.912 38.216C116.288 38.216 115.694 38.102 115.13 37.874C114.566 37.646 114.074 37.358 113.654 37.01L114.392 36.02C114.776 36.332 115.166 36.584 115.562 36.776C115.97 36.968 116.438 37.064 116.966 37.064C117.542 37.064 117.974 36.932 118.262 36.668C118.55 36.404 118.694 36.08 118.694 35.696C118.694 35.468 118.634 35.27 118.514 35.102C118.394 34.934 118.238 34.79 118.046 34.67C117.866 34.538 117.656 34.424 117.416 34.328C117.176 34.232 116.936 34.136 116.696 34.04C116.384 33.932 116.072 33.812 115.76 33.68C115.448 33.536 115.166 33.368 114.914 33.176C114.674 32.972 114.476 32.738 114.32 32.474C114.164 32.21 114.086 31.892 114.086 31.52C114.086 31.172 114.152 30.848 114.284 30.548C114.428 30.236 114.626 29.972 114.878 29.756C115.142 29.528 115.46 29.354 115.832 29.234C116.204 29.102 116.624 29.036 117.092 29.036C117.644 29.036 118.148 29.132 118.604 29.324C119.072 29.516 119.474 29.75 119.81 30.026L119.108 30.962C118.808 30.734 118.496 30.548 118.172 30.404C117.848 30.26 117.494 30.188 117.11 30.188C116.558 30.188 116.15 30.314 115.886 30.566C115.634 30.818 115.508 31.112 115.508 31.448C115.508 31.652 115.562 31.832 115.67 31.988C115.778 32.132 115.922 32.264 116.102 32.384C116.282 32.492 116.486 32.594 116.714 32.69C116.954 32.774 117.2 32.864 117.452 32.96C117.764 33.08 118.076 33.206 118.388 33.338C118.712 33.47 119 33.638 119.252 33.842C119.504 34.034 119.708 34.274 119.864 34.562C120.032 34.85 120.116 35.198 120.116 35.606C120.116 35.966 120.044 36.302 119.9 36.614C119.768 36.926 119.564 37.202 119.288 37.442C119.024 37.682 118.688 37.868 118.28 38C117.884 38.144 117.428 38.216 116.912 38.216ZM127.945 40.79C127.057 40.79 126.229 40.652 125.461 40.376C124.693 40.1 124.021 39.686 123.445 39.134C122.881 38.594 122.431 37.922 122.095 37.118C121.771 36.314 121.609 35.39 121.609 34.346C121.609 33.146 121.807 32.054 122.203 31.07C122.611 30.086 123.157 29.246 123.841 28.55C124.537 27.854 125.335 27.32 126.235 26.948C127.147 26.564 128.107 26.372 129.115 26.372C130.027 26.372 130.843 26.516 131.563 26.804C132.295 27.092 132.913 27.5 133.417 28.028C133.933 28.544 134.329 29.168 134.605 29.9C134.881 30.632 135.019 31.442 135.019 32.33C135.019 33.122 134.905 33.818 134.677 34.418C134.461 35.006 134.179 35.504 133.831 35.912C133.483 36.308 133.093 36.608 132.661 36.812C132.241 37.016 131.827 37.118 131.419 37.118C130.927 37.118 130.507 37.004 130.159 36.776C129.823 36.548 129.625 36.206 129.565 35.75H129.529C129.229 36.098 128.887 36.392 128.503 36.632C128.119 36.86 127.729 36.974 127.333 36.974C126.721 36.974 126.205 36.758 125.785 36.326C125.377 35.894 125.173 35.264 125.173 34.436C125.173 33.956 125.251 33.47 125.407 32.978C125.575 32.474 125.809 32.024 126.109 31.628C126.409 31.22 126.769 30.89 127.189 30.638C127.621 30.386 128.101 30.26 128.629 30.26C128.941 30.26 129.217 30.332 129.457 30.476C129.697 30.608 129.901 30.824 130.069 31.124H130.105L130.303 30.404H131.293L130.591 34.004C130.231 35.408 130.555 36.11 131.563 36.11C131.851 36.11 132.133 36.026 132.409 35.858C132.697 35.69 132.955 35.45 133.183 35.138C133.423 34.814 133.615 34.424 133.759 33.968C133.903 33.5 133.975 32.972 133.975 32.384C133.975 31.664 133.867 30.998 133.651 30.386C133.447 29.762 133.135 29.228 132.715 28.784C132.295 28.34 131.773 27.992 131.149 27.74C130.525 27.488 129.805 27.362 128.989 27.362C128.185 27.362 127.405 27.53 126.649 27.866C125.893 28.19 125.221 28.652 124.633 29.252C124.045 29.852 123.571 30.578 123.211 31.43C122.863 32.282 122.689 33.236 122.689 34.292C122.689 35.168 122.821 35.948 123.085 36.632C123.361 37.316 123.739 37.892 124.219 38.36C124.699 38.828 125.263 39.182 125.911 39.422C126.571 39.674 127.285 39.8 128.053 39.8C128.605 39.8 129.127 39.722 129.619 39.566C130.111 39.422 130.561 39.23 130.969 38.99L131.365 39.872C130.345 40.484 129.205 40.79 127.945 40.79ZM127.621 35.966C127.873 35.966 128.131 35.882 128.395 35.714C128.671 35.546 128.965 35.276 129.277 34.904L129.799 32.042C129.631 31.766 129.457 31.574 129.277 31.466C129.097 31.346 128.887 31.286 128.647 31.286C128.287 31.286 127.963 31.382 127.675 31.574C127.399 31.766 127.159 32.012 126.955 32.312C126.763 32.612 126.613 32.942 126.505 33.302C126.409 33.662 126.361 34.01 126.361 34.346C126.361 34.922 126.481 35.336 126.721 35.588C126.961 35.84 127.261 35.966 127.621 35.966ZM140.396 38.216C139.292 38.216 138.41 37.82 137.75 37.028C137.102 36.236 136.778 35.108 136.778 33.644C136.778 32.936 136.88 32.3 137.084 31.736C137.3 31.16 137.582 30.674 137.93 30.278C138.278 29.882 138.68 29.576 139.136 29.36C139.592 29.144 140.072 29.036 140.576 29.036C141.08 29.036 141.518 29.126 141.89 29.306C142.262 29.486 142.64 29.732 143.024 30.044L142.952 28.55V25.184H144.446V38H143.222L143.096 36.974H143.042C142.694 37.31 142.292 37.604 141.836 37.856C141.392 38.096 140.912 38.216 140.396 38.216ZM140.72 36.974C141.128 36.974 141.512 36.878 141.872 36.686C142.232 36.482 142.592 36.176 142.952 35.768V31.196C142.58 30.86 142.22 30.626 141.872 30.494C141.536 30.35 141.188 30.278 140.828 30.278C140.48 30.278 140.15 30.362 139.838 30.53C139.538 30.686 139.274 30.914 139.046 31.214C138.818 31.502 138.638 31.85 138.506 32.258C138.374 32.666 138.308 33.122 138.308 33.626C138.308 34.682 138.518 35.504 138.938 36.092C139.358 36.68 139.952 36.974 140.72 36.974ZM147.392 38V29.252H148.616L148.742 30.836H148.796C149.096 30.284 149.456 29.846 149.876 29.522C150.308 29.198 150.776 29.036 151.28 29.036C151.628 29.036 151.94 29.096 152.216 29.216L151.928 30.512C151.784 30.464 151.652 30.428 151.532 30.404C151.412 30.38 151.262 30.368 151.082 30.368C150.71 30.368 150.32 30.518 149.912 30.818C149.516 31.118 149.168 31.64 148.868 32.384V38H147.392ZM155.209 38.216C154.477 38.216 153.865 38 153.373 37.568C152.893 37.136 152.653 36.524 152.653 35.732C152.653 34.772 153.079 34.04 153.931 33.536C154.783 33.02 156.145 32.66 158.017 32.456C158.017 32.18 157.987 31.91 157.927 31.646C157.879 31.382 157.789 31.148 157.657 30.944C157.525 30.74 157.339 30.578 157.099 30.458C156.871 30.326 156.577 30.26 156.217 30.26C155.713 30.26 155.239 30.356 154.795 30.548C154.351 30.74 153.955 30.956 153.607 31.196L153.031 30.17C153.439 29.906 153.937 29.654 154.525 29.414C155.113 29.162 155.761 29.036 156.469 29.036C157.537 29.036 158.311 29.366 158.791 30.026C159.271 30.674 159.511 31.544 159.511 32.636V38H158.287L158.161 36.956H158.107C157.687 37.304 157.237 37.604 156.757 37.856C156.277 38.096 155.761 38.216 155.209 38.216ZM155.641 37.028C156.061 37.028 156.457 36.932 156.829 36.74C157.201 36.536 157.597 36.242 158.017 35.858V33.428C157.285 33.524 156.667 33.638 156.163 33.77C155.671 33.902 155.269 34.058 154.957 34.238C154.657 34.418 154.435 34.628 154.291 34.868C154.159 35.096 154.093 35.348 154.093 35.624C154.093 36.128 154.243 36.488 154.543 36.704C154.843 36.92 155.209 37.028 155.641 37.028ZM162.263 38V29.252H163.487L163.613 30.512H163.667C164.087 30.092 164.525 29.744 164.981 29.468C165.449 29.18 165.989 29.036 166.601 29.036C167.525 29.036 168.197 29.324 168.617 29.9C169.049 30.476 169.265 31.328 169.265 32.456V38H167.789V32.654C167.789 31.826 167.657 31.232 167.393 30.872C167.129 30.5 166.709 30.314 166.133 30.314C165.677 30.314 165.275 30.428 164.927 30.656C164.579 30.884 164.183 31.22 163.739 31.664V38H162.263ZM172.107 38V25.184H173.565V33.86H173.619L177.345 29.252H178.983L176.049 32.762L179.379 38H177.759L175.203 33.788L173.565 35.696V38H172.107ZM183.795 42.032C183.255 42.032 182.763 41.978 182.319 41.87C181.875 41.774 181.491 41.624 181.167 41.42C180.855 41.216 180.609 40.97 180.429 40.682C180.261 40.394 180.177 40.058 180.177 39.674C180.177 39.302 180.291 38.948 180.519 38.612C180.747 38.276 181.059 37.97 181.455 37.694V37.622C181.239 37.49 181.053 37.31 180.897 37.082C180.753 36.842 180.681 36.548 180.681 36.2C180.681 35.828 180.783 35.504 180.987 35.228C181.191 34.952 181.407 34.736 181.635 34.58V34.508C181.347 34.268 181.083 33.95 180.843 33.554C180.615 33.146 180.501 32.678 180.501 32.15C180.501 31.67 180.585 31.238 180.753 30.854C180.933 30.47 181.173 30.146 181.473 29.882C181.773 29.606 182.121 29.396 182.517 29.252C182.925 29.108 183.351 29.036 183.795 29.036C184.035 29.036 184.257 29.06 184.461 29.108C184.677 29.144 184.869 29.192 185.037 29.252H188.079V30.386H186.279C186.483 30.59 186.651 30.848 186.783 31.16C186.927 31.472 186.999 31.814 186.999 32.186C186.999 32.654 186.915 33.08 186.747 33.464C186.579 33.836 186.351 34.154 186.063 34.418C185.775 34.67 185.433 34.868 185.037 35.012C184.653 35.156 184.239 35.228 183.795 35.228C183.579 35.228 183.357 35.204 183.129 35.156C182.901 35.096 182.685 35.018 182.481 34.922C182.325 35.054 182.193 35.204 182.085 35.372C181.977 35.528 181.923 35.726 181.923 35.966C181.923 36.242 182.031 36.47 182.247 36.65C182.463 36.83 182.871 36.92 183.471 36.92H185.163C186.183 36.92 186.945 37.088 187.449 37.424C187.965 37.748 188.223 38.276 188.223 39.008C188.223 39.416 188.121 39.8 187.917 40.16C187.713 40.532 187.419 40.856 187.035 41.132C186.651 41.408 186.183 41.624 185.631 41.78C185.091 41.948 184.479 42.032 183.795 42.032ZM183.795 34.238C184.047 34.238 184.281 34.19 184.497 34.094C184.725 33.998 184.923 33.86 185.091 33.68C185.271 33.5 185.409 33.284 185.505 33.032C185.601 32.768 185.649 32.474 185.649 32.15C185.649 31.502 185.469 31.004 185.109 30.656C184.749 30.296 184.311 30.116 183.795 30.116C183.279 30.116 182.841 30.296 182.481 30.656C182.121 31.004 181.941 31.502 181.941 32.15C181.941 32.474 181.989 32.768 182.085 33.032C182.181 33.284 182.313 33.5 182.481 33.68C182.661 33.86 182.859 33.998 183.075 34.094C183.303 34.19 183.543 34.238 183.795 34.238ZM184.011 41.006C184.431 41.006 184.809 40.952 185.145 40.844C185.493 40.748 185.787 40.616 186.027 40.448C186.267 40.292 186.453 40.106 186.585 39.89C186.717 39.674 186.783 39.452 186.783 39.224C186.783 38.816 186.633 38.534 186.333 38.378C186.033 38.222 185.595 38.144 185.019 38.144H183.507C183.339 38.144 183.153 38.132 182.949 38.108C182.757 38.096 182.565 38.06 182.373 38C182.061 38.228 181.833 38.468 181.689 38.72C181.545 38.972 181.473 39.224 181.473 39.476C181.473 39.944 181.695 40.316 182.139 40.592C182.595 40.868 183.219 41.006 184.011 41.006ZM193.069 38.216C192.529 38.216 192.013 38.114 191.521 37.91C191.041 37.706 190.615 37.412 190.243 37.028C189.871 36.632 189.571 36.152 189.343 35.588C189.127 35.012 189.019 34.364 189.019 33.644C189.019 32.912 189.127 32.264 189.343 31.7C189.571 31.124 189.871 30.638 190.243 30.242C190.615 29.846 191.041 29.546 191.521 29.342C192.013 29.138 192.529 29.036 193.069 29.036C193.609 29.036 194.119 29.138 194.599 29.342C195.091 29.546 195.523 29.846 195.895 30.242C196.267 30.638 196.561 31.124 196.777 31.7C197.005 32.264 197.119 32.912 197.119 33.644C197.119 34.364 197.005 35.012 196.777 35.588C196.561 36.152 196.267 36.632 195.895 37.028C195.523 37.412 195.091 37.706 194.599 37.91C194.119 38.114 193.609 38.216 193.069 38.216ZM193.069 36.992C193.441 36.992 193.783 36.914 194.095 36.758C194.407 36.59 194.671 36.362 194.887 36.074C195.115 35.774 195.289 35.42 195.409 35.012C195.529 34.604 195.589 34.148 195.589 33.644C195.589 33.14 195.529 32.684 195.409 32.276C195.289 31.856 195.115 31.496 194.887 31.196C194.671 30.896 194.407 30.668 194.095 30.512C193.783 30.344 193.441 30.26 193.069 30.26C192.697 30.26 192.355 30.344 192.043 30.512C191.731 30.668 191.461 30.896 191.233 31.196C191.017 31.496 190.849 31.856 190.729 32.276C190.609 32.684 190.549 33.14 190.549 33.644C190.549 34.148 190.609 34.604 190.729 35.012C190.849 35.42 191.017 35.774 191.233 36.074C191.461 36.362 191.731 36.59 192.043 36.758C192.355 36.914 192.697 36.992 193.069 36.992ZM202.969 38.216C202.381 38.216 201.829 38.114 201.313 37.91C200.809 37.694 200.365 37.394 199.981 37.01C199.609 36.614 199.315 36.134 199.099 35.57C198.883 35.006 198.775 34.364 198.775 33.644C198.775 32.924 198.883 32.282 199.099 31.718C199.327 31.142 199.621 30.656 199.981 30.26C200.353 29.864 200.773 29.564 201.241 29.36C201.709 29.144 202.195 29.036 202.699 29.036C203.251 29.036 203.743 29.132 204.175 29.324C204.619 29.516 204.985 29.792 205.273 30.152C205.573 30.512 205.801 30.944 205.957 31.448C206.113 31.952 206.191 32.516 206.191 33.14C206.191 33.296 206.185 33.452 206.173 33.608C206.173 33.752 206.161 33.878 206.137 33.986H200.233C200.293 34.922 200.581 35.666 201.097 36.218C201.625 36.758 202.309 37.028 203.149 37.028C203.569 37.028 203.953 36.968 204.301 36.848C204.661 36.716 205.003 36.548 205.327 36.344L205.849 37.316C205.465 37.556 205.039 37.766 204.571 37.946C204.103 38.126 203.569 38.216 202.969 38.216ZM200.215 32.924H204.895C204.895 32.036 204.703 31.364 204.319 30.908C203.947 30.44 203.419 30.206 202.735 30.206C202.423 30.206 202.123 30.266 201.835 30.386C201.559 30.506 201.307 30.686 201.079 30.926C200.851 31.154 200.659 31.436 200.503 31.772C200.359 32.108 200.263 32.492 200.215 32.924ZM211.341 38.216C210.237 38.216 209.355 37.82 208.695 37.028C208.047 36.236 207.723 35.108 207.723 33.644C207.723 32.936 207.825 32.3 208.029 31.736C208.245 31.16 208.527 30.674 208.875 30.278C209.223 29.882 209.625 29.576 210.081 29.36C210.537 29.144 211.017 29.036 211.521 29.036C212.025 29.036 212.463 29.126 212.835 29.306C213.207 29.486 213.585 29.732 213.969 30.044L213.897 28.55V25.184H215.391V38H214.167L214.041 36.974H213.987C213.639 37.31 213.237 37.604 212.781 37.856C212.337 38.096 211.857 38.216 211.341 38.216ZM211.665 36.974C212.073 36.974 212.457 36.878 212.817 36.686C213.177 36.482 213.537 36.176 213.897 35.768V31.196C213.525 30.86 213.165 30.626 212.817 30.494C212.481 30.35 212.133 30.278 211.773 30.278C211.425 30.278 211.095 30.362 210.783 30.53C210.483 30.686 210.219 30.914 209.991 31.214C209.763 31.502 209.583 31.85 209.451 32.258C209.319 32.666 209.253 33.122 209.253 33.626C209.253 34.682 209.463 35.504 209.883 36.092C210.303 36.68 210.897 36.974 211.665 36.974ZM218.337 38V25.184H219.795V33.86H219.849L223.575 29.252H225.213L222.279 32.762L225.609 38H223.989L221.433 33.788L219.795 35.696V38H218.337ZM230.335 38.216C229.795 38.216 229.279 38.114 228.787 37.91C228.307 37.706 227.881 37.412 227.509 37.028C227.137 36.632 226.837 36.152 226.609 35.588C226.393 35.012 226.285 34.364 226.285 33.644C226.285 32.912 226.393 32.264 226.609 31.7C226.837 31.124 227.137 30.638 227.509 30.242C227.881 29.846 228.307 29.546 228.787 29.342C229.279 29.138 229.795 29.036 230.335 29.036C230.875 29.036 231.385 29.138 231.865 29.342C232.357 29.546 232.789 29.846 233.161 30.242C233.533 30.638 233.827 31.124 234.043 31.7C234.271 32.264 234.385 32.912 234.385 33.644C234.385 34.364 234.271 35.012 234.043 35.588C233.827 36.152 233.533 36.632 233.161 37.028C232.789 37.412 232.357 37.706 231.865 37.91C231.385 38.114 230.875 38.216 230.335 38.216ZM230.335 36.992C230.707 36.992 231.049 36.914 231.361 36.758C231.673 36.59 231.937 36.362 232.153 36.074C232.381 35.774 232.555 35.42 232.675 35.012C232.795 34.604 232.855 34.148 232.855 33.644C232.855 33.14 232.795 32.684 232.675 32.276C232.555 31.856 232.381 31.496 232.153 31.196C231.937 30.896 231.673 30.668 231.361 30.512C231.049 30.344 230.707 30.26 230.335 30.26C229.963 30.26 229.621 30.344 229.309 30.512C228.997 30.668 228.727 30.896 228.499 31.196C228.283 31.496 228.115 31.856 227.995 32.276C227.875 32.684 227.815 33.14 227.815 33.644C227.815 34.148 227.875 34.604 227.995 35.012C228.115 35.42 228.283 35.774 228.499 36.074C228.727 36.362 228.997 36.59 229.309 36.758C229.621 36.914 229.963 36.992 230.335 36.992ZM240.091 38.216C239.551 38.216 239.035 38.114 238.543 37.91C238.063 37.706 237.637 37.412 237.265 37.028C236.893 36.632 236.593 36.152 236.365 35.588C236.149 35.012 236.041 34.364 236.041 33.644C236.041 32.912 236.149 32.264 236.365 31.7C236.593 31.124 236.893 30.638 237.265 30.242C237.637 29.846 238.063 29.546 238.543 29.342C239.035 29.138 239.551 29.036 240.091 29.036C240.631 29.036 241.141 29.138 241.621 29.342C242.113 29.546 242.545 29.846 242.917 30.242C243.289 30.638 243.583 31.124 243.799 31.7C244.027 32.264 244.141 32.912 244.141 33.644C244.141 34.364 244.027 35.012 243.799 35.588C243.583 36.152 243.289 36.632 242.917 37.028C242.545 37.412 242.113 37.706 241.621 37.91C241.141 38.114 240.631 38.216 240.091 38.216ZM240.091 36.992C240.463 36.992 240.805 36.914 241.117 36.758C241.429 36.59 241.693 36.362 241.909 36.074C242.137 35.774 242.311 35.42 242.431 35.012C242.551 34.604 242.611 34.148 242.611 33.644C242.611 33.14 242.551 32.684 242.431 32.276C242.311 31.856 242.137 31.496 241.909 31.196C241.693 30.896 241.429 30.668 241.117 30.512C240.805 30.344 240.463 30.26 240.091 30.26C239.719 30.26 239.377 30.344 239.065 30.512C238.753 30.668 238.483 30.896 238.255 31.196C238.039 31.496 237.871 31.856 237.751 32.276C237.631 32.684 237.571 33.14 237.571 33.644C237.571 34.148 237.631 34.604 237.751 35.012C237.871 35.42 238.039 35.774 238.255 36.074C238.483 36.362 238.753 36.59 239.065 36.758C239.377 36.914 239.719 36.992 240.091 36.992ZM246.445 41.69V29.252H247.669L247.795 30.26H247.849C248.245 29.924 248.677 29.636 249.145 29.396C249.625 29.156 250.123 29.036 250.639 29.036C251.203 29.036 251.701 29.144 252.133 29.36C252.565 29.564 252.925 29.864 253.213 30.26C253.501 30.644 253.717 31.112 253.861 31.664C254.017 32.204 254.095 32.816 254.095 33.5C254.095 34.244 253.993 34.91 253.789 35.498C253.585 36.074 253.309 36.566 252.961 36.974C252.613 37.382 252.211 37.694 251.755 37.91C251.299 38.114 250.819 38.216 250.315 38.216C249.907 38.216 249.499 38.126 249.091 37.946C248.695 37.766 248.293 37.52 247.885 37.208L247.921 38.738V41.69H246.445ZM250.063 36.974C250.423 36.974 250.753 36.896 251.053 36.74C251.365 36.572 251.629 36.344 251.845 36.056C252.073 35.756 252.247 35.39 252.367 34.958C252.499 34.526 252.565 34.04 252.565 33.5C252.565 33.02 252.523 32.582 252.439 32.186C252.355 31.79 252.217 31.454 252.025 31.178C251.845 30.89 251.605 30.668 251.305 30.512C251.017 30.356 250.669 30.278 250.261 30.278C249.889 30.278 249.511 30.38 249.127 30.584C248.755 30.788 248.353 31.082 247.921 31.466V36.056C248.317 36.392 248.701 36.632 249.073 36.776C249.445 36.908 249.775 36.974 250.063 36.974ZM257.027 38.216C256.727 38.216 256.469 38.114 256.253 37.91C256.049 37.694 255.947 37.424 255.947 37.1C255.947 36.752 256.049 36.476 256.253 36.272C256.469 36.056 256.727 35.948 257.027 35.948C257.315 35.948 257.561 36.056 257.765 36.272C257.981 36.476 258.089 36.752 258.089 37.1C258.089 37.424 257.981 37.694 257.765 37.91C257.561 38.114 257.315 38.216 257.027 38.216ZM260.736 38V29.252H261.96L262.086 30.512H262.14C262.56 30.092 262.998 29.744 263.454 29.468C263.922 29.18 264.462 29.036 265.074 29.036C265.998 29.036 266.67 29.324 267.09 29.9C267.522 30.476 267.738 31.328 267.738 32.456V38H266.262V32.654C266.262 31.826 266.13 31.232 265.866 30.872C265.602 30.5 265.182 30.314 264.606 30.314C264.15 30.314 263.748 30.428 263.4 30.656C263.052 30.884 262.656 31.22 262.212 31.664V38H260.736ZM272.146 38.216C271.582 38.216 271.18 38.048 270.94 37.712C270.7 37.376 270.58 36.884 270.58 36.236V25.184H272.056V36.344C272.056 36.584 272.098 36.752 272.182 36.848C272.266 36.944 272.362 36.992 272.47 36.992C272.518 36.992 272.56 36.992 272.596 36.992C272.644 36.992 272.71 36.98 272.794 36.956L272.992 38.072C272.896 38.12 272.782 38.156 272.65 38.18C272.518 38.204 272.35 38.216 272.146 38.216ZM4.896 90.216C4.068 90.216 3.3 90.06 2.592 89.748C1.884 89.436 1.272 89.01 0.756 88.47L1.656 87.426C2.076 87.87 2.568 88.23 3.132 88.506C3.708 88.77 4.302 88.902 4.914 88.902C5.694 88.902 6.3 88.728 6.732 88.38C7.164 88.02 7.38 87.552 7.38 86.976C7.38 86.676 7.326 86.424 7.218 86.22C7.122 86.004 6.984 85.824 6.804 85.68C6.636 85.524 6.432 85.386 6.192 85.266C5.952 85.146 5.694 85.02 5.418 84.888L3.726 84.15C3.45 84.03 3.168 83.886 2.88 83.718C2.592 83.55 2.334 83.346 2.106 83.106C1.878 82.866 1.692 82.584 1.548 82.26C1.404 81.924 1.332 81.54 1.332 81.108C1.332 80.664 1.422 80.25 1.602 79.866C1.794 79.482 2.052 79.152 2.376 78.876C2.712 78.588 3.102 78.366 3.546 78.21C4.002 78.054 4.5 77.976 5.04 77.976C5.748 77.976 6.402 78.114 7.002 78.39C7.602 78.654 8.112 79.002 8.532 79.434L7.722 80.406C7.362 80.058 6.96 79.788 6.516 79.596C6.084 79.392 5.592 79.29 5.04 79.29C4.38 79.29 3.846 79.446 3.438 79.758C3.042 80.058 2.844 80.478 2.844 81.018C2.844 81.306 2.898 81.552 3.006 81.756C3.126 81.948 3.282 82.122 3.474 82.278C3.666 82.422 3.876 82.554 4.104 82.674C4.332 82.782 4.566 82.884 4.806 82.98L6.48 83.7C6.816 83.844 7.134 84.012 7.434 84.204C7.734 84.384 7.992 84.6 8.208 84.852C8.424 85.092 8.592 85.38 8.712 85.716C8.844 86.04 8.91 86.418 8.91 86.85C8.91 87.318 8.814 87.756 8.622 88.164C8.442 88.572 8.178 88.932 7.83 89.244C7.482 89.544 7.062 89.784 6.57 89.964C6.078 90.132 5.52 90.216 4.896 90.216ZM14.5472 90.216C13.9712 90.216 13.4312 90.114 12.9272 89.91C12.4232 89.706 11.9852 89.412 11.6132 89.028C11.2532 88.632 10.9652 88.152 10.7492 87.588C10.5452 87.012 10.4432 86.364 10.4432 85.644C10.4432 84.912 10.5572 84.264 10.7852 83.7C11.0132 83.124 11.3192 82.638 11.7032 82.242C12.0872 81.846 12.5312 81.546 13.0352 81.342C13.5512 81.138 14.0912 81.036 14.6552 81.036C15.2312 81.036 15.7232 81.138 16.1312 81.342C16.5392 81.546 16.8992 81.786 17.2112 82.062L16.4552 83.034C16.2032 82.806 15.9332 82.62 15.6452 82.476C15.3692 82.332 15.0572 82.26 14.7092 82.26C14.3132 82.26 13.9472 82.344 13.6112 82.512C13.2752 82.668 12.9872 82.896 12.7472 83.196C12.5072 83.496 12.3152 83.856 12.1712 84.276C12.0392 84.684 11.9732 85.14 11.9732 85.644C11.9732 86.148 12.0392 86.604 12.1712 87.012C12.3032 87.42 12.4832 87.774 12.7112 88.074C12.9512 88.362 13.2392 88.59 13.5752 88.758C13.9112 88.914 14.2772 88.992 14.6732 88.992C15.0812 88.992 15.4532 88.908 15.7892 88.74C16.1372 88.56 16.4492 88.35 16.7252 88.11L17.3732 89.1C16.9772 89.448 16.5392 89.724 16.0592 89.928C15.5792 90.12 15.0752 90.216 14.5472 90.216ZM19.3002 90V77.184H20.7762V80.676L20.7222 82.476C21.1422 82.08 21.5802 81.744 22.0362 81.468C22.4922 81.18 23.0262 81.036 23.6382 81.036C24.5622 81.036 25.2342 81.324 25.6542 81.9C26.0862 82.476 26.3022 83.328 26.3022 84.456V90H24.8262V84.654C24.8262 83.826 24.6942 83.232 24.4302 82.872C24.1662 82.5 23.7462 82.314 23.1702 82.314C22.7142 82.314 22.3122 82.428 21.9642 82.656C21.6162 82.884 21.2202 83.22 20.7762 83.664V90H19.3002ZM32.4932 90.216C31.9532 90.216 31.4372 90.114 30.9452 89.91C30.4652 89.706 30.0392 89.412 29.6672 89.028C29.2952 88.632 28.9952 88.152 28.7672 87.588C28.5512 87.012 28.4432 86.364 28.4432 85.644C28.4432 84.912 28.5512 84.264 28.7672 83.7C28.9952 83.124 29.2952 82.638 29.6672 82.242C30.0392 81.846 30.4652 81.546 30.9452 81.342C31.4372 81.138 31.9532 81.036 32.4932 81.036C33.0332 81.036 33.5432 81.138 34.0232 81.342C34.5152 81.546 34.9472 81.846 35.3192 82.242C35.6912 82.638 35.9852 83.124 36.2012 83.7C36.4292 84.264 36.5432 84.912 36.5432 85.644C36.5432 86.364 36.4292 87.012 36.2012 87.588C35.9852 88.152 35.6912 88.632 35.3192 89.028C34.9472 89.412 34.5152 89.706 34.0232 89.91C33.5432 90.114 33.0332 90.216 32.4932 90.216ZM32.4932 88.992C32.8652 88.992 33.2072 88.914 33.5192 88.758C33.8312 88.59 34.0952 88.362 34.3112 88.074C34.5392 87.774 34.7132 87.42 34.8332 87.012C34.9532 86.604 35.0132 86.148 35.0132 85.644C35.0132 85.14 34.9532 84.684 34.8332 84.276C34.7132 83.856 34.5392 83.496 34.3112 83.196C34.0952 82.896 33.8312 82.668 33.5192 82.512C33.2072 82.344 32.8652 82.26 32.4932 82.26C32.1212 82.26 31.7792 82.344 31.4672 82.512C31.1552 82.668 30.8852 82.896 30.6572 83.196C30.4412 83.496 30.2732 83.856 30.1532 84.276C30.0332 84.684 29.9732 85.14 29.9732 85.644C29.9732 86.148 30.0332 86.604 30.1532 87.012C30.2732 87.42 30.4412 87.774 30.6572 88.074C30.8852 88.362 31.1552 88.59 31.4672 88.758C31.7792 88.914 32.1212 88.992 32.4932 88.992ZM40.4131 90.216C39.8491 90.216 39.4471 90.048 39.2071 89.712C38.9671 89.376 38.8471 88.884 38.8471 88.236V77.184H40.3231V88.344C40.3231 88.584 40.3651 88.752 40.4491 88.848C40.5331 88.944 40.6291 88.992 40.7371 88.992C40.7851 88.992 40.8271 88.992 40.8631 88.992C40.9111 88.992 40.9771 88.98 41.0611 88.956L41.2591 90.072C41.1631 90.12 41.0491 90.156 40.9171 90.18C40.7851 90.204 40.6171 90.216 40.4131 90.216ZM46.189 90.216C45.721 90.216 45.325 90.144 45.001 90C44.689 89.856 44.431 89.658 44.227 89.406C44.035 89.154 43.897 88.848 43.813 88.488C43.729 88.128 43.687 87.732 43.687 87.3V82.458H42.391V81.342L43.759 81.252L43.939 78.804H45.181V81.252H47.539V82.458H45.181V87.318C45.181 87.858 45.277 88.278 45.469 88.578C45.673 88.866 46.027 89.01 46.531 89.01C46.687 89.01 46.855 88.986 47.035 88.938C47.215 88.89 47.377 88.836 47.521 88.776L47.809 89.892C47.569 89.976 47.305 90.048 47.017 90.108C46.741 90.18 46.465 90.216 46.189 90.216ZM52.8169 90.216C52.2289 90.216 51.6769 90.114 51.1609 89.91C50.6569 89.694 50.2129 89.394 49.8289 89.01C49.4569 88.614 49.1629 88.134 48.9469 87.57C48.7309 87.006 48.6229 86.364 48.6229 85.644C48.6229 84.924 48.7309 84.282 48.9469 83.718C49.1749 83.142 49.4689 82.656 49.8289 82.26C50.2009 81.864 50.6209 81.564 51.0889 81.36C51.5569 81.144 52.0429 81.036 52.5469 81.036C53.0989 81.036 53.5909 81.132 54.0229 81.324C54.4669 81.516 54.8329 81.792 55.1209 82.152C55.4209 82.512 55.6489 82.944 55.8049 83.448C55.9609 83.952 56.0389 84.516 56.0389 85.14C56.0389 85.296 56.0329 85.452 56.0209 85.608C56.0209 85.752 56.0089 85.878 55.9849 85.986H50.0809C50.1409 86.922 50.4289 87.666 50.9449 88.218C51.4729 88.758 52.1569 89.028 52.9969 89.028C53.4169 89.028 53.8009 88.968 54.1489 88.848C54.5089 88.716 54.8509 88.548 55.1749 88.344L55.6969 89.316C55.3129 89.556 54.8869 89.766 54.4189 89.946C53.9509 90.126 53.4169 90.216 52.8169 90.216ZM50.0629 84.924H54.7429C54.7429 84.036 54.5509 83.364 54.1669 82.908C53.7949 82.44 53.2669 82.206 52.5829 82.206C52.2709 82.206 51.9709 82.266 51.6829 82.386C51.4069 82.506 51.1549 82.686 50.9269 82.926C50.6989 83.154 50.5069 83.436 50.3509 83.772C50.2069 84.108 50.1109 84.492 50.0629 84.924ZM58.2006 90V81.252H59.4246L59.5506 82.512H59.6046C60.0246 82.092 60.4626 81.744 60.9186 81.468C61.3866 81.18 61.9266 81.036 62.5386 81.036C63.4626 81.036 64.1346 81.324 64.5546 81.9C64.9866 82.476 65.2026 83.328 65.2026 84.456V90H63.7266V84.654C63.7266 83.826 63.5946 83.232 63.3306 82.872C63.0666 82.5 62.6466 82.314 62.0706 82.314C61.6146 82.314 61.2126 82.428 60.8646 82.656C60.5166 82.884 60.1206 83.22 59.6766 83.664V90H58.2006ZM70.3304 90.216C69.7064 90.216 69.1124 90.102 68.5484 89.874C67.9844 89.646 67.4924 89.358 67.0724 89.01L67.8104 88.02C68.1944 88.332 68.5844 88.584 68.9804 88.776C69.3884 88.968 69.8564 89.064 70.3844 89.064C70.9604 89.064 71.3924 88.932 71.6804 88.668C71.9684 88.404 72.1124 88.08 72.1124 87.696C72.1124 87.468 72.0524 87.27 71.9324 87.102C71.8124 86.934 71.6564 86.79 71.4644 86.67C71.2844 86.538 71.0744 86.424 70.8344 86.328C70.5944 86.232 70.3544 86.136 70.1144 86.04C69.8024 85.932 69.4904 85.812 69.1784 85.68C68.8664 85.536 68.5844 85.368 68.3324 85.176C68.0924 84.972 67.8944 84.738 67.7384 84.474C67.5824 84.21 67.5044 83.892 67.5044 83.52C67.5044 83.172 67.5704 82.848 67.7024 82.548C67.8464 82.236 68.0444 81.972 68.2964 81.756C68.5604 81.528 68.8784 81.354 69.2504 81.234C69.6224 81.102 70.0424 81.036 70.5104 81.036C71.0624 81.036 71.5664 81.132 72.0224 81.324C72.4904 81.516 72.8924 81.75 73.2284 82.026L72.5264 82.962C72.2264 82.734 71.9144 82.548 71.5904 82.404C71.2664 82.26 70.9124 82.188 70.5284 82.188C69.9764 82.188 69.5684 82.314 69.3044 82.566C69.0524 82.818 68.9264 83.112 68.9264 83.448C68.9264 83.652 68.9804 83.832 69.0884 83.988C69.1964 84.132 69.3404 84.264 69.5204 84.384C69.7004 84.492 69.9044 84.594 70.1324 84.69C70.3724 84.774 70.6184 84.864 70.8704 84.96C71.1824 85.08 71.4944 85.206 71.8064 85.338C72.1304 85.47 72.4184 85.638 72.6704 85.842C72.9224 86.034 73.1264 86.274 73.2824 86.562C73.4504 86.85 73.5344 87.198 73.5344 87.606C73.5344 87.966 73.4624 88.302 73.3184 88.614C73.1864 88.926 72.9824 89.202 72.7064 89.442C72.4424 89.682 72.1064 89.868 71.6984 90C71.3024 90.144 70.8464 90.216 70.3304 90.216ZM78.9874 90.216C78.4474 90.216 77.9314 90.114 77.4394 89.91C76.9594 89.706 76.5334 89.412 76.1614 89.028C75.7894 88.632 75.4894 88.152 75.2614 87.588C75.0454 87.012 74.9374 86.364 74.9374 85.644C74.9374 84.912 75.0454 84.264 75.2614 83.7C75.4894 83.124 75.7894 82.638 76.1614 82.242C76.5334 81.846 76.9594 81.546 77.4394 81.342C77.9314 81.138 78.4474 81.036 78.9874 81.036C79.5274 81.036 80.0374 81.138 80.5174 81.342C81.0094 81.546 81.4414 81.846 81.8134 82.242C82.1854 82.638 82.4794 83.124 82.6954 83.7C82.9234 84.264 83.0374 84.912 83.0374 85.644C83.0374 86.364 82.9234 87.012 82.6954 87.588C82.4794 88.152 82.1854 88.632 81.8134 89.028C81.4414 89.412 81.0094 89.706 80.5174 89.91C80.0374 90.114 79.5274 90.216 78.9874 90.216ZM78.9874 88.992C79.3594 88.992 79.7014 88.914 80.0134 88.758C80.3254 88.59 80.5894 88.362 80.8054 88.074C81.0334 87.774 81.2074 87.42 81.3274 87.012C81.4474 86.604 81.5074 86.148 81.5074 85.644C81.5074 85.14 81.4474 84.684 81.3274 84.276C81.2074 83.856 81.0334 83.496 80.8054 83.196C80.5894 82.896 80.3254 82.668 80.0134 82.512C79.7014 82.344 79.3594 82.26 78.9874 82.26C78.6154 82.26 78.2734 82.344 77.9614 82.512C77.6494 82.668 77.3794 82.896 77.1514 83.196C76.9354 83.496 76.7674 83.856 76.6474 84.276C76.5274 84.684 76.4674 85.14 76.4674 85.644C76.4674 86.148 76.5274 86.604 76.6474 87.012C76.7674 87.42 76.9354 87.774 77.1514 88.074C77.3794 88.362 77.6494 88.59 77.9614 88.758C78.2734 88.914 78.6154 88.992 78.9874 88.992ZM87.1609 90L84.0109 81.252H85.5409L87.1969 86.22C87.3289 86.652 87.4609 87.084 87.5929 87.516C87.7369 87.948 87.8749 88.374 88.0069 88.794H88.0789C88.2109 88.374 88.3429 87.948 88.4749 87.516C88.6069 87.084 88.7389 86.652 88.8709 86.22L90.5269 81.252H91.9849L88.8889 90H87.1609ZM97.149 90.216C96.561 90.216 96.009 90.114 95.493 89.91C94.989 89.694 94.545 89.394 94.161 89.01C93.789 88.614 93.495 88.134 93.279 87.57C93.063 87.006 92.955 86.364 92.955 85.644C92.955 84.924 93.063 84.282 93.279 83.718C93.507 83.142 93.801 82.656 94.161 82.26C94.533 81.864 94.953 81.564 95.421 81.36C95.889 81.144 96.375 81.036 96.879 81.036C97.431 81.036 97.923 81.132 98.355 81.324C98.799 81.516 99.165 81.792 99.453 82.152C99.753 82.512 99.981 82.944 100.137 83.448C100.293 83.952 100.371 84.516 100.371 85.14C100.371 85.296 100.365 85.452 100.353 85.608C100.353 85.752 100.341 85.878 100.317 85.986H94.413C94.473 86.922 94.761 87.666 95.277 88.218C95.805 88.758 96.489 89.028 97.329 89.028C97.749 89.028 98.133 88.968 98.481 88.848C98.841 88.716 99.183 88.548 99.507 88.344L100.029 89.316C99.645 89.556 99.219 89.766 98.751 89.946C98.283 90.126 97.749 90.216 97.149 90.216ZM94.395 84.924H99.075C99.075 84.036 98.883 83.364 98.499 82.908C98.127 82.44 97.599 82.206 96.915 82.206C96.603 82.206 96.303 82.266 96.015 82.386C95.739 82.506 95.487 82.686 95.259 82.926C95.031 83.154 94.839 83.436 94.683 83.772C94.539 84.108 94.443 84.492 94.395 84.924ZM102.533 90V81.252H103.757L103.883 82.512H103.937C104.357 82.092 104.795 81.744 105.251 81.468C105.719 81.18 106.259 81.036 106.871 81.036C107.795 81.036 108.467 81.324 108.887 81.9C109.319 82.476 109.535 83.328 109.535 84.456V90H108.059V84.654C108.059 83.826 107.927 83.232 107.663 82.872C107.399 82.5 106.979 82.314 106.403 82.314C105.947 82.314 105.545 82.428 105.197 82.656C104.849 82.884 104.453 83.22 104.009 83.664V90H102.533ZM115.224 90V89.118C116.088 88.254 116.856 87.474 117.528 86.778C118.2 86.082 118.764 85.44 119.22 84.852C119.676 84.252 120.024 83.706 120.264 83.214C120.504 82.71 120.624 82.224 120.624 81.756C120.624 81.096 120.444 80.556 120.084 80.136C119.724 79.716 119.178 79.506 118.446 79.506C117.966 79.506 117.522 79.644 117.114 79.92C116.706 80.184 116.334 80.508 115.998 80.892L115.152 80.046C115.632 79.518 116.142 79.098 116.682 78.786C117.222 78.462 117.87 78.3 118.626 78.3C119.694 78.3 120.534 78.612 121.146 79.236C121.758 79.848 122.064 80.664 122.064 81.684C122.064 82.224 121.944 82.77 121.704 83.322C121.476 83.862 121.152 84.426 120.732 85.014C120.324 85.59 119.832 86.196 119.256 86.832C118.692 87.456 118.068 88.122 117.384 88.83C117.696 88.806 118.02 88.782 118.356 88.758C118.692 88.734 119.01 88.722 119.31 88.722H122.64V90H115.224ZM127.699 90.216C127.243 90.216 126.823 90.168 126.439 90.072C126.067 89.988 125.725 89.874 125.413 89.73C125.101 89.574 124.819 89.4 124.567 89.208C124.327 89.016 124.111 88.812 123.919 88.596L124.675 87.624C125.023 87.984 125.425 88.302 125.881 88.578C126.349 88.854 126.925 88.992 127.609 88.992C128.305 88.992 128.875 88.806 129.319 88.434C129.763 88.05 129.985 87.534 129.985 86.886C129.985 86.55 129.919 86.244 129.787 85.968C129.667 85.68 129.463 85.434 129.175 85.23C128.887 85.026 128.509 84.87 128.041 84.762C127.573 84.654 126.997 84.6 126.313 84.6V83.466C126.925 83.466 127.435 83.412 127.843 83.304C128.263 83.196 128.599 83.046 128.851 82.854C129.115 82.662 129.301 82.434 129.409 82.17C129.517 81.906 129.571 81.624 129.571 81.324C129.571 80.76 129.391 80.316 129.031 79.992C128.683 79.668 128.203 79.506 127.591 79.506C127.111 79.506 126.667 79.614 126.259 79.83C125.863 80.046 125.491 80.328 125.143 80.676L124.351 79.74C124.795 79.32 125.281 78.978 125.809 78.714C126.349 78.438 126.961 78.3 127.645 78.3C128.149 78.3 128.611 78.366 129.031 78.498C129.451 78.63 129.811 78.822 130.111 79.074C130.423 79.314 130.663 79.614 130.831 79.974C130.999 80.334 131.083 80.748 131.083 81.216C131.083 81.912 130.891 82.482 130.507 82.926C130.123 83.37 129.619 83.712 128.995 83.952V84.024C129.343 84.108 129.667 84.234 129.967 84.402C130.267 84.558 130.531 84.762 130.759 85.014C130.987 85.254 131.161 85.536 131.281 85.86C131.413 86.184 131.479 86.544 131.479 86.94C131.479 87.444 131.377 87.9 131.173 88.308C130.981 88.716 130.711 89.064 130.363 89.352C130.027 89.628 129.631 89.844 129.175 90C128.719 90.144 128.227 90.216 127.699 90.216ZM3.186 116C3.234 114.92 3.33 113.93 3.474 113.03C3.618 112.13 3.816 111.278 4.068 110.474C4.332 109.658 4.662 108.872 5.058 108.116C5.466 107.36 5.952 106.586 6.516 105.794H0.792V104.516H8.19V105.434C7.506 106.298 6.948 107.126 6.516 107.918C6.096 108.71 5.76 109.52 5.508 110.348C5.256 111.164 5.07 112.034 4.95 112.958C4.842 113.87 4.764 114.884 4.716 116H3.186ZM13.7713 116.216C13.2073 116.216 12.6853 116.102 12.2053 115.874C11.7253 115.646 11.3053 115.304 10.9453 114.848C10.5973 114.38 10.3213 113.804 10.1173 113.12C9.91327 112.424 9.81127 111.614 9.81127 110.69C9.81127 109.538 9.93127 108.56 10.1713 107.756C10.4113 106.94 10.7353 106.28 11.1433 105.776C11.5513 105.26 12.0133 104.888 12.5293 104.66C13.0573 104.42 13.6093 104.3 14.1853 104.3C14.8093 104.3 15.3433 104.42 15.7873 104.66C16.2433 104.888 16.6333 105.176 16.9573 105.524L16.1293 106.442C15.8893 106.166 15.6013 105.95 15.2653 105.794C14.9413 105.626 14.5993 105.542 14.2393 105.542C13.8433 105.542 13.4653 105.626 13.1053 105.794C12.7453 105.962 12.4273 106.238 12.1513 106.622C11.8753 107.006 11.6533 107.51 11.4853 108.134C11.3173 108.746 11.2273 109.508 11.2153 110.42C11.5753 109.976 11.9953 109.628 12.4753 109.376C12.9553 109.112 13.4293 108.98 13.8973 108.98C14.8933 108.98 15.6853 109.274 16.2733 109.862C16.8733 110.45 17.1733 111.338 17.1733 112.526C17.1733 113.078 17.0833 113.582 16.9033 114.038C16.7233 114.482 16.4773 114.866 16.1653 115.19C15.8533 115.514 15.4933 115.766 15.0853 115.946C14.6773 116.126 14.2393 116.216 13.7713 116.216ZM13.7713 115.046C14.0593 115.046 14.3233 114.986 14.5633 114.866C14.8033 114.746 15.0133 114.578 15.1933 114.362C15.3733 114.134 15.5113 113.87 15.6073 113.57C15.7153 113.258 15.7693 112.91 15.7693 112.526C15.7693 111.77 15.5953 111.176 15.2473 110.744C14.8993 110.312 14.3653 110.096 13.6453 110.096C13.2733 110.096 12.8713 110.216 12.4393 110.456C12.0073 110.684 11.6113 111.068 11.2513 111.608C11.3473 112.736 11.6053 113.594 12.0253 114.182C12.4573 114.758 13.0393 115.046 13.7713 115.046ZM18.6145 116V115.118C19.4785 114.254 20.2465 113.474 20.9185 112.778C21.5905 112.082 22.1545 111.44 22.6105 110.852C23.0665 110.252 23.4145 109.706 23.6545 109.214C23.8945 108.71 24.0145 108.224 24.0145 107.756C24.0145 107.096 23.8345 106.556 23.4745 106.136C23.1145 105.716 22.5685 105.506 21.8365 105.506C21.3565 105.506 20.9125 105.644 20.5045 105.92C20.0965 106.184 19.7245 106.508 19.3885 106.892L18.5425 106.046C19.0225 105.518 19.5325 105.098 20.0725 104.786C20.6125 104.462 21.2605 104.3 22.0165 104.3C23.0845 104.3 23.9245 104.612 24.5365 105.236C25.1485 105.848 25.4545 106.664 25.4545 107.684C25.4545 108.224 25.3345 108.77 25.0945 109.322C24.8665 109.862 24.5425 110.426 24.1225 111.014C23.7145 111.59 23.2225 112.196 22.6465 112.832C22.0825 113.456 21.4585 114.122 20.7745 114.83C21.0865 114.806 21.4105 114.782 21.7465 114.758C22.0825 114.734 22.4005 114.722 22.7005 114.722H26.0305V116H18.6145ZM28.2638 116V114.776H30.8918V106.316H28.8038V105.362C29.3318 105.266 29.7878 105.152 30.1718 105.02C30.5678 104.876 30.9218 104.708 31.2338 104.516H32.3678V114.776H34.7438V116H28.2638ZM37.4091 116V104.192H38.9031V109.142H44.3931V104.192H45.9051V116H44.3931V110.438H38.9031V116H37.4091ZM51.1853 109.394L50.6273 111.194H54.1733L53.6153 109.394C53.3993 108.734 53.1953 108.08 53.0033 107.432C52.8113 106.772 52.6193 106.1 52.4273 105.416H52.3553C52.1753 106.1 51.9893 106.772 51.7973 107.432C51.6053 108.08 51.4013 108.734 51.1853 109.394ZM47.5853 116L51.5813 104.192H53.2733L57.2693 116H55.6673L54.5513 112.4H50.2493L49.1153 116H47.5853ZM62.5458 116V104.192H66.0558C66.6558 104.192 67.2018 104.246 67.6938 104.354C68.1978 104.462 68.6238 104.63 68.9718 104.858C69.3318 105.086 69.6078 105.386 69.7998 105.758C70.0038 106.118 70.1058 106.556 70.1058 107.072C70.1058 107.66 69.9558 108.194 69.6558 108.674C69.3678 109.142 68.9418 109.466 68.3778 109.646V109.718C69.0978 109.85 69.6798 110.15 70.1238 110.618C70.5678 111.086 70.7898 111.728 70.7898 112.544C70.7898 113.12 70.6818 113.624 70.4658 114.056C70.2498 114.488 69.9438 114.848 69.5478 115.136C69.1518 115.424 68.6778 115.64 68.1258 115.784C67.5738 115.928 66.9678 116 66.3078 116H62.5458ZM64.0398 109.214H65.7858C66.7938 109.214 67.5198 109.04 67.9638 108.692C68.4078 108.344 68.6298 107.87 68.6298 107.27C68.6298 106.586 68.3958 106.1 67.9278 105.812C67.4718 105.524 66.7818 105.38 65.8578 105.38H64.0398V109.214ZM64.0398 114.812H66.0918C67.1118 114.812 67.9038 114.626 68.4678 114.254C69.0318 113.87 69.3138 113.282 69.3138 112.49C69.3138 111.758 69.0378 111.224 68.4858 110.888C67.9338 110.54 67.1358 110.366 66.0918 110.366H64.0398V114.812ZM76.3858 116.216C75.8458 116.216 75.3298 116.114 74.8378 115.91C74.3578 115.706 73.9318 115.412 73.5598 115.028C73.1878 114.632 72.8878 114.152 72.6598 113.588C72.4438 113.012 72.3358 112.364 72.3358 111.644C72.3358 110.912 72.4438 110.264 72.6598 109.7C72.8878 109.124 73.1878 108.638 73.5598 108.242C73.9318 107.846 74.3578 107.546 74.8378 107.342C75.3298 107.138 75.8458 107.036 76.3858 107.036C76.9258 107.036 77.4358 107.138 77.9158 107.342C78.4078 107.546 78.8398 107.846 79.2118 108.242C79.5838 108.638 79.8778 109.124 80.0938 109.7C80.3218 110.264 80.4358 110.912 80.4358 111.644C80.4358 112.364 80.3218 113.012 80.0938 113.588C79.8778 114.152 79.5838 114.632 79.2118 115.028C78.8398 115.412 78.4078 115.706 77.9158 115.91C77.4358 116.114 76.9258 116.216 76.3858 116.216ZM76.3858 114.992C76.7578 114.992 77.0998 114.914 77.4118 114.758C77.7238 114.59 77.9878 114.362 78.2038 114.074C78.4318 113.774 78.6058 113.42 78.7258 113.012C78.8458 112.604 78.9058 112.148 78.9058 111.644C78.9058 111.14 78.8458 110.684 78.7258 110.276C78.6058 109.856 78.4318 109.496 78.2038 109.196C77.9878 108.896 77.7238 108.668 77.4118 108.512C77.0998 108.344 76.7578 108.26 76.3858 108.26C76.0138 108.26 75.6718 108.344 75.3598 108.512C75.0478 108.668 74.7778 108.896 74.5498 109.196C74.3338 109.496 74.1658 109.856 74.0458 110.276C73.9258 110.684 73.8658 111.14 73.8658 111.644C73.8658 112.148 73.9258 112.604 74.0458 113.012C74.1658 113.42 74.3338 113.774 74.5498 114.074C74.7778 114.362 75.0478 114.59 75.3598 114.758C75.6718 114.914 76.0138 114.992 76.3858 114.992ZM82.7397 116V107.252H83.9637L84.0897 108.836H84.1437C84.4437 108.284 84.8037 107.846 85.2237 107.522C85.6557 107.198 86.1237 107.036 86.6277 107.036C86.9757 107.036 87.2877 107.096 87.5637 107.216L87.2757 108.512C87.1317 108.464 86.9997 108.428 86.8797 108.404C86.7597 108.38 86.6097 108.368 86.4297 108.368C86.0577 108.368 85.6677 108.518 85.2597 108.818C84.8637 109.118 84.5157 109.64 84.2157 110.384V116H82.7397ZM88.9799 116V107.252H90.2039L90.3299 108.512H90.3839C90.8039 108.092 91.2419 107.744 91.6979 107.468C92.1659 107.18 92.7059 107.036 93.3179 107.036C94.2419 107.036 94.9139 107.324 95.3339 107.9C95.7659 108.476 95.9819 109.328 95.9819 110.456V116H94.5059V110.654C94.5059 109.826 94.3739 109.232 94.1099 108.872C93.8459 108.5 93.4259 108.314 92.8499 108.314C92.3939 108.314 91.9919 108.428 91.6439 108.656C91.2959 108.884 90.8999 109.22 90.4559 109.664V116H88.9799ZM102.37 116.216C101.782 116.216 101.23 116.114 100.714 115.91C100.21 115.694 99.7657 115.394 99.3817 115.01C99.0097 114.614 98.7157 114.134 98.4997 113.57C98.2837 113.006 98.1757 112.364 98.1757 111.644C98.1757 110.924 98.2837 110.282 98.4997 109.718C98.7277 109.142 99.0217 108.656 99.3817 108.26C99.7537 107.864 100.174 107.564 100.642 107.36C101.11 107.144 101.596 107.036 102.1 107.036C102.652 107.036 103.144 107.132 103.576 107.324C104.02 107.516 104.386 107.792 104.674 108.152C104.974 108.512 105.202 108.944 105.358 109.448C105.514 109.952 105.592 110.516 105.592 111.14C105.592 111.296 105.586 111.452 105.574 111.608C105.574 111.752 105.562 111.878 105.538 111.986H99.6337C99.6937 112.922 99.9817 113.666 100.498 114.218C101.026 114.758 101.71 115.028 102.55 115.028C102.97 115.028 103.354 114.968 103.702 114.848C104.062 114.716 104.404 114.548 104.728 114.344L105.25 115.316C104.866 115.556 104.44 115.766 103.972 115.946C103.504 116.126 102.97 116.216 102.37 116.216ZM99.6157 110.924H104.296C104.296 110.036 104.104 109.364 103.72 108.908C103.348 108.44 102.82 108.206 102.136 108.206C101.824 108.206 101.524 108.266 101.236 108.386C100.96 108.506 100.708 108.686 100.48 108.926C100.252 109.154 100.06 109.436 99.9037 109.772C99.7597 110.108 99.6637 110.492 99.6157 110.924ZM4.068 142V131.452H0.504V130.192H9.144V131.452H5.58V142H4.068ZM11.1264 142V129.184H12.6024V132.676L12.5484 134.476C12.9684 134.08 13.4064 133.744 13.8624 133.468C14.3184 133.18 14.8524 133.036 15.4644 133.036C16.3884 133.036 17.0604 133.324 17.4804 133.9C17.9124 134.476 18.1284 135.328 18.1284 136.456V142H16.6524V136.654C16.6524 135.826 16.5204 135.232 16.2564 134.872C15.9924 134.5 15.5724 134.314 14.9964 134.314C14.5404 134.314 14.1384 134.428 13.7904 134.656C13.4424 134.884 13.0464 135.22 12.6024 135.664V142H11.1264ZM24.4634 142.216C23.8754 142.216 23.3234 142.114 22.8074 141.91C22.3034 141.694 21.8594 141.394 21.4754 141.01C21.1034 140.614 20.8094 140.134 20.5934 139.57C20.3774 139.006 20.2694 138.364 20.2694 137.644C20.2694 136.924 20.3774 136.282 20.5934 135.718C20.8214 135.142 21.1154 134.656 21.4754 134.26C21.8474 133.864 22.2674 133.564 22.7354 133.36C23.2034 133.144 23.6894 133.036 24.1934 133.036C24.7454 133.036 25.2374 133.132 25.6694 133.324C26.1134 133.516 26.4794 133.792 26.7674 134.152C27.0674 134.512 27.2954 134.944 27.4514 135.448C27.6074 135.952 27.6854 136.516 27.6854 137.14C27.6854 137.296 27.6794 137.452 27.6674 137.608C27.6674 137.752 27.6554 137.878 27.6314 137.986H21.7274C21.7874 138.922 22.0754 139.666 22.5914 140.218C23.1194 140.758 23.8034 141.028 24.6434 141.028C25.0634 141.028 25.4474 140.968 25.7954 140.848C26.1554 140.716 26.4974 140.548 26.8214 140.344L27.3434 141.316C26.9594 141.556 26.5334 141.766 26.0654 141.946C25.5974 142.126 25.0634 142.216 24.4634 142.216ZM21.7094 136.924H26.3894C26.3894 136.036 26.1974 135.364 25.8134 134.908C25.4414 134.44 24.9134 134.206 24.2294 134.206C23.9174 134.206 23.6174 134.266 23.3294 134.386C23.0534 134.506 22.8014 134.686 22.5734 134.926C22.3454 135.154 22.1534 135.436 21.9974 135.772C21.8534 136.108 21.7574 136.492 21.7094 136.924ZM33.5946 142V130.192H35.1426L39.4086 137.608L40.6866 140.056H40.7586C40.7226 139.456 40.6806 138.838 40.6326 138.202C40.5966 137.554 40.5786 136.918 40.5786 136.294V130.192H42.0006V142H40.4526L36.1686 134.566L34.8906 132.136H34.8186C34.8666 132.736 34.9086 133.348 34.9446 133.972C34.9926 134.584 35.0166 135.202 35.0166 135.826V142H33.5946ZM48.6509 142.216C48.0629 142.216 47.5109 142.114 46.9949 141.91C46.4909 141.694 46.0469 141.394 45.6629 141.01C45.2909 140.614 44.9969 140.134 44.7809 139.57C44.5649 139.006 44.4569 138.364 44.4569 137.644C44.4569 136.924 44.5649 136.282 44.7809 135.718C45.0089 135.142 45.3029 134.656 45.6629 134.26C46.0349 133.864 46.4549 133.564 46.9229 133.36C47.3909 133.144 47.8769 133.036 48.3809 133.036C48.9329 133.036 49.4249 133.132 49.8569 133.324C50.3009 133.516 50.6669 133.792 50.9549 134.152C51.2549 134.512 51.4829 134.944 51.6389 135.448C51.7949 135.952 51.8729 136.516 51.8729 137.14C51.8729 137.296 51.8669 137.452 51.8549 137.608C51.8549 137.752 51.8429 137.878 51.8189 137.986H45.9149C45.9749 138.922 46.2629 139.666 46.7789 140.218C47.3069 140.758 47.9909 141.028 48.8309 141.028C49.2509 141.028 49.6349 140.968 49.9829 140.848C50.3429 140.716 50.6849 140.548 51.0089 140.344L51.5309 141.316C51.1469 141.556 50.7209 141.766 50.2529 141.946C49.7849 142.126 49.2509 142.216 48.6509 142.216ZM45.8969 136.924H50.5769C50.5769 136.036 50.3849 135.364 50.0009 134.908C49.6289 134.44 49.1009 134.206 48.4169 134.206C48.1049 134.206 47.8049 134.266 47.5169 134.386C47.2409 134.506 46.9889 134.686 46.7609 134.926C46.5329 135.154 46.3409 135.436 46.1849 135.772C46.0409 136.108 45.9449 136.492 45.8969 136.924ZM56.6128 142.216C56.1448 142.216 55.7488 142.144 55.4248 142C55.1128 141.856 54.8548 141.658 54.6508 141.406C54.4588 141.154 54.3208 140.848 54.2368 140.488C54.1528 140.128 54.1108 139.732 54.1108 139.3V134.458H52.8148V133.342L54.1828 133.252L54.3628 130.804H55.6048V133.252H57.9628V134.458H55.6048V139.318C55.6048 139.858 55.7008 140.278 55.8928 140.578C56.0968 140.866 56.4508 141.01 56.9548 141.01C57.1108 141.01 57.2788 140.986 57.4588 140.938C57.6388 140.89 57.8008 140.836 57.9448 140.776L58.2328 141.892C57.9928 141.976 57.7288 142.048 57.4408 142.108C57.1648 142.18 56.8888 142.216 56.6128 142.216ZM59.9408 142V129.184H61.4168V132.676L61.3628 134.476C61.7828 134.08 62.2208 133.744 62.6768 133.468C63.1328 133.18 63.6668 133.036 64.2788 133.036C65.2028 133.036 65.8748 133.324 66.2948 133.9C66.7268 134.476 66.9428 135.328 66.9428 136.456V142H65.4668V136.654C65.4668 135.826 65.3348 135.232 65.0708 134.872C64.8068 134.5 64.3868 134.314 63.8108 134.314C63.3548 134.314 62.9528 134.428 62.6048 134.656C62.2568 134.884 61.8608 135.22 61.4168 135.664V142H59.9408ZM73.2779 142.216C72.6899 142.216 72.1379 142.114 71.6219 141.91C71.1179 141.694 70.6739 141.394 70.2899 141.01C69.9179 140.614 69.6239 140.134 69.4079 139.57C69.1919 139.006 69.0839 138.364 69.0839 137.644C69.0839 136.924 69.1919 136.282 69.4079 135.718C69.6359 135.142 69.9299 134.656 70.2899 134.26C70.6619 133.864 71.0819 133.564 71.5499 133.36C72.0179 133.144 72.5039 133.036 73.0079 133.036C73.5599 133.036 74.0519 133.132 74.4839 133.324C74.9279 133.516 75.2939 133.792 75.5819 134.152C75.8819 134.512 76.1099 134.944 76.2659 135.448C76.4219 135.952 76.4999 136.516 76.4999 137.14C76.4999 137.296 76.4939 137.452 76.4819 137.608C76.4819 137.752 76.4699 137.878 76.4459 137.986H70.5419C70.6019 138.922 70.8899 139.666 71.4059 140.218C71.9339 140.758 72.6179 141.028 73.4579 141.028C73.8779 141.028 74.2619 140.968 74.6099 140.848C74.9699 140.716 75.3119 140.548 75.6359 140.344L76.1579 141.316C75.7739 141.556 75.3479 141.766 74.8799 141.946C74.4119 142.126 73.8779 142.216 73.2779 142.216ZM70.5239 136.924H75.2039C75.2039 136.036 75.0119 135.364 74.6279 134.908C74.2559 134.44 73.7279 134.206 73.0439 134.206C72.7319 134.206 72.4319 134.266 72.1439 134.386C71.8679 134.506 71.6159 134.686 71.3879 134.926C71.1599 135.154 70.9679 135.436 70.8119 135.772C70.6679 136.108 70.5719 136.492 70.5239 136.924ZM78.6615 142V133.252H79.8855L80.0115 134.836H80.0655C80.3655 134.284 80.7255 133.846 81.1455 133.522C81.5775 133.198 82.0455 133.036 82.5495 133.036C82.8975 133.036 83.2095 133.096 83.4855 133.216L83.1975 134.512C83.0535 134.464 82.9215 134.428 82.8015 134.404C82.6815 134.38 82.5315 134.368 82.3515 134.368C81.9795 134.368 81.5895 134.518 81.1815 134.818C80.7855 135.118 80.4375 135.64 80.1375 136.384V142H78.6615ZM86.4678 142.216C85.9038 142.216 85.5018 142.048 85.2618 141.712C85.0218 141.376 84.9018 140.884 84.9018 140.236V129.184H86.3778V140.344C86.3778 140.584 86.4198 140.752 86.5038 140.848C86.5878 140.944 86.6838 140.992 86.7918 140.992C86.8398 140.992 86.8818 140.992 86.9178 140.992C86.9658 140.992 87.0318 140.98 87.1158 140.956L87.3138 142.072C87.2178 142.12 87.1038 142.156 86.9718 142.18C86.8398 142.204 86.6718 142.216 86.4678 142.216ZM91.5057 142.216C90.7737 142.216 90.1617 142 89.6697 141.568C89.1897 141.136 88.9497 140.524 88.9497 139.732C88.9497 138.772 89.3757 138.04 90.2277 137.536C91.0797 137.02 92.4417 136.66 94.3137 136.456C94.3137 136.18 94.2837 135.91 94.2237 135.646C94.1757 135.382 94.0857 135.148 93.9537 134.944C93.8217 134.74 93.6357 134.578 93.3957 134.458C93.1677 134.326 92.8737 134.26 92.5137 134.26C92.0097 134.26 91.5357 134.356 91.0917 134.548C90.6477 134.74 90.2517 134.956 89.9037 135.196L89.3277 134.17C89.7357 133.906 90.2337 133.654 90.8217 133.414C91.4097 133.162 92.0577 133.036 92.7657 133.036C93.8337 133.036 94.6077 133.366 95.0877 134.026C95.5677 134.674 95.8077 135.544 95.8077 136.636V142H94.5837L94.4577 140.956H94.4037C93.9837 141.304 93.5337 141.604 93.0537 141.856C92.5737 142.096 92.0577 142.216 91.5057 142.216ZM91.9377 141.028C92.3577 141.028 92.7537 140.932 93.1257 140.74C93.4977 140.536 93.8937 140.242 94.3137 139.858V137.428C93.5817 137.524 92.9637 137.638 92.4597 137.77C91.9677 137.902 91.5657 138.058 91.2537 138.238C90.9537 138.418 90.7317 138.628 90.5877 138.868C90.4557 139.096 90.3897 139.348 90.3897 139.624C90.3897 140.128 90.5397 140.488 90.8397 140.704C91.1397 140.92 91.5057 141.028 91.9377 141.028ZM98.56 142V133.252H99.784L99.91 134.512H99.964C100.384 134.092 100.822 133.744 101.278 133.468C101.746 133.18 102.286 133.036 102.898 133.036C103.822 133.036 104.494 133.324 104.914 133.9C105.346 134.476 105.562 135.328 105.562 136.456V142H104.086V136.654C104.086 135.826 103.954 135.232 103.69 134.872C103.426 134.5 103.006 134.314 102.43 134.314C101.974 134.314 101.572 134.428 101.224 134.656C100.876 134.884 100.48 135.22 100.036 135.664V142H98.56ZM111.392 142.216C110.288 142.216 109.406 141.82 108.746 141.028C108.098 140.236 107.774 139.108 107.774 137.644C107.774 136.936 107.876 136.3 108.08 135.736C108.296 135.16 108.578 134.674 108.926 134.278C109.274 133.882 109.676 133.576 110.132 133.36C110.588 133.144 111.068 133.036 111.572 133.036C112.076 133.036 112.514 133.126 112.886 133.306C113.258 133.486 113.636 133.732 114.02 134.044L113.948 132.55V129.184H115.442V142H114.218L114.092 140.974H114.038C113.69 141.31 113.288 141.604 112.832 141.856C112.388 142.096 111.908 142.216 111.392 142.216ZM111.716 140.974C112.124 140.974 112.508 140.878 112.868 140.686C113.228 140.482 113.588 140.176 113.948 139.768V135.196C113.576 134.86 113.216 134.626 112.868 134.494C112.532 134.35 112.184 134.278 111.824 134.278C111.476 134.278 111.146 134.362 110.834 134.53C110.534 134.686 110.27 134.914 110.042 135.214C109.814 135.502 109.634 135.85 109.502 136.258C109.37 136.666 109.304 137.122 109.304 137.626C109.304 138.682 109.514 139.504 109.934 140.092C110.354 140.68 110.948 140.974 111.716 140.974ZM120.674 142.216C120.05 142.216 119.456 142.102 118.892 141.874C118.328 141.646 117.836 141.358 117.416 141.01L118.154 140.02C118.538 140.332 118.928 140.584 119.324 140.776C119.732 140.968 120.2 141.064 120.728 141.064C121.304 141.064 121.736 140.932 122.024 140.668C122.312 140.404 122.456 140.08 122.456 139.696C122.456 139.468 122.396 139.27 122.276 139.102C122.156 138.934 122 138.79 121.808 138.67C121.628 138.538 121.418 138.424 121.178 138.328C120.938 138.232 120.698 138.136 120.458 138.04C120.146 137.932 119.834 137.812 119.522 137.68C119.21 137.536 118.928 137.368 118.676 137.176C118.436 136.972 118.238 136.738 118.082 136.474C117.926 136.21 117.848 135.892 117.848 135.52C117.848 135.172 117.914 134.848 118.046 134.548C118.19 134.236 118.388 133.972 118.64 133.756C118.904 133.528 119.222 133.354 119.594 133.234C119.966 133.102 120.386 133.036 120.854 133.036C121.406 133.036 121.91 133.132 122.366 133.324C122.834 133.516 123.236 133.75 123.572 134.026L122.87 134.962C122.57 134.734 122.258 134.548 121.934 134.404C121.61 134.26 121.256 134.188 120.872 134.188C120.32 134.188 119.912 134.314 119.648 134.566C119.396 134.818 119.27 135.112 119.27 135.448C119.27 135.652 119.324 135.832 119.432 135.988C119.54 136.132 119.684 136.264 119.864 136.384C120.044 136.492 120.248 136.594 120.476 136.69C120.716 136.774 120.962 136.864 121.214 136.96C121.526 137.08 121.838 137.206 122.15 137.338C122.474 137.47 122.762 137.638 123.014 137.842C123.266 138.034 123.47 138.274 123.626 138.562C123.794 138.85 123.878 139.198 123.878 139.606C123.878 139.966 123.806 140.302 123.662 140.614C123.53 140.926 123.326 141.202 123.05 141.442C122.786 141.682 122.45 141.868 122.042 142C121.646 142.144 121.19 142.216 120.674 142.216Z" fill="#040716" fill-opacity="0.8"/>
</svg>
